<?xml version="1.0" encoding="iso-8859-1"?>
<!-- Generator: Adobe Illustrator 18.1.1, SVG Export Plug-In . SVG Version: 6.00 Build 0)  -->
<svg version="1.1" id="Capa_1" xmlns="http://www.w3.org/2000/svg" xmlns:xlink="http://www.w3.org/1999/xlink" x="0px" y="0px"
	 viewBox="0 0 76 76" style="enable-background:new 0 0 76 76;" xml:space="preserve">
<g id="_x37_7_Essential_Icons_65_">
	<style>.cls-1{fill:#1a1a18;}.cls-10,.cls-11,.cls-12,.cls-13,.cls-14,.cls-15,.cls-16,.cls-17,.cls-18,.cls-19,.cls-2,.cls-20,.cls-21,.cls-22,.cls-23,.cls-24,.cls-3,.cls-4,.cls-5,.cls-6,.cls-7,.cls-8,.cls-9{fill-rule:evenodd;}.cls-2{fill:url(#GradientFill_18);}.cls-3{fill:url(#GradientFill_18-2);}.cls-4{fill:url(#GradientFill_18-3);}.cls-5{fill:url(#GradientFill_18-4);}.cls-6{fill:url(#GradientFill_18-5);}.cls-7{fill:url(#GradientFill_18-6);}.cls-8{fill:#f4a100;}.cls-9{fill:#9a5a00;}.cls-10{fill:url(#GradientFill_1);}.cls-11{fill:url(#GradientFill_2);}.cls-12{fill:url(#GradientFill_3);}.cls-13{fill:url(#GradientFill_4);}.cls-14{fill:url(#GradientFill_4-2);}.cls-15{fill:url(#GradientFill_5);}.cls-16{fill:url(#GradientFill_1-2);}.cls-17{fill:url(#GradientFill_5-2);}.cls-18{fill:url(#GradientFill_6);}.cls-19{fill:#815e00;}.cls-20{fill:url(#GradientFill_7);}.cls-21{fill:url(#GradientFill_2-2);}.cls-22{fill:#b77700;}.cls-23{fill:#673900;}.cls-24{fill:#ffdd75;}</style><path id="Tick" d="M38,0C17,0,0,17,0,38s17,38,38,38s38-17,38-38S59,0,38,0z M38,72C19.2,72,4,56.8,4,38S19.2,4,38,4s34,15.2,34,34
		S56.8,72,38,72z M60.9,25.1c-0.8-0.8-2-0.8-2.8,0L32.6,50.7L21.9,40c-0.8-0.8-2.1-0.8-2.8,0c-0.8,0.8-0.8,2.1,0,2.8l12.1,12.1
		c0.4,0.4,0.9,0.6,1.4,0.6s1-0.2,1.4-0.6l26.9-27C61.7,27.1,61.7,25.9,60.9,25.1z"/>
</g>
<g>
</g>
<g>
</g>
<g>
</g>
<g>
</g>
<g>
</g>
<g>
</g>
<g>
</g>
<g>
</g>
<g>
</g>
<g>
</g>
<g>
</g>
<g>
</g>
<g>
</g>
<g>
</g>
<g>
</g>
</svg>
