<svg width="393" height="210" viewBox="0 0 393 210" fill="none" xmlns="http://www.w3.org/2000/svg">
<path d="M24.9355 150.874H73.8L80.4974 169.415L72.8723 172.041C71.9408 169.873 70.746 167.825 69.3139 165.94C68.177 164.58 66.8045 163.428 65.2599 162.539C63.6979 161.617 61.9733 160.994 60.1764 160.701C58.038 160.459 55.8851 160.363 53.7332 160.413H46.4893V175.792H50.2129C51.3575 175.847 52.499 175.633 53.5426 175.167C54.2801 174.816 54.8886 174.248 55.2836 173.541C55.7093 172.481 55.8916 171.341 55.8174 170.203V167.115H63.4425V193.121H55.8174V189.37C55.858 188.568 55.7591 187.764 55.5251 186.995C55.3059 186.38 54.9449 185.824 54.4703 185.369C54.0313 184.961 53.4998 184.661 52.9198 184.494C51.8835 184.285 50.8251 184.201 49.7681 184.244H46.4893V196.459C46.4199 197.466 46.5494 198.477 46.8705 199.435C47.1346 199.96 47.5875 200.37 48.1414 200.585C49.1983 200.903 50.3047 201.03 51.4075 200.96H53.8221V209H24.9355V200.96H26.8545C28.3039 201.115 29.7667 200.831 31.0484 200.148C31.442 199.703 31.7351 199.181 31.9082 198.616C32.0813 198.051 32.1304 197.457 32.0523 196.872V163.452C32.1271 162.424 31.9976 161.392 31.6711 160.413C31.4002 159.899 30.9486 159.499 30.4002 159.288C29.2524 158.969 28.058 158.842 26.8672 158.913H24.9355V150.874Z" fill="#1A1A18"/>
<path d="M84.106 150.874H112.954V158.913H110.413C109.522 158.864 108.628 158.935 107.757 159.125C107.131 159.359 106.609 159.802 106.282 160.376C105.92 161.238 105.764 162.17 105.825 163.101V196.297C105.771 197.135 105.835 197.977 106.016 198.797C106.172 199.131 106.455 199.391 106.803 199.523C107.542 199.753 108.318 199.846 109.091 199.798C112.193 199.907 115.286 199.41 118.19 198.335C120.611 197.274 122.744 195.668 124.418 193.646C126.523 191.032 128.137 188.068 129.183 184.894L136.974 187.52L129.183 209.025H84.106V200.985H86.9273C87.8204 201.032 88.7124 200.874 89.5325 200.523C90.0796 200.248 90.5244 199.811 90.8034 199.273C91.1271 198.414 91.2614 197.498 91.1973 196.584V163.664C91.2554 162.648 91.1218 161.631 90.8034 160.663C90.5867 160.107 90.189 159.637 89.6723 159.326C88.8963 158.995 88.0505 158.853 87.2069 158.913H84.106V150.874Z" fill="#1A1A18"/>
<path d="M136.161 150.874H165.517V158.913H163.306C162.318 158.827 161.322 158.946 160.383 159.263C160.187 159.383 160.027 159.554 159.922 159.756C159.817 159.959 159.77 160.186 159.786 160.413C159.961 161.59 160.428 162.707 161.146 163.664L168.911 176.292L177.54 163.139L178.811 161.226C178.919 160.934 178.975 160.625 178.976 160.313C178.992 160.114 178.956 159.914 178.871 159.733C178.787 159.551 178.656 159.394 178.493 159.276C177.778 158.982 177.002 158.866 176.231 158.938H173.219V150.899H196.768V158.938C195.284 158.86 193.8 159.103 192.422 159.651C191.2 160.495 190.181 161.592 189.435 162.864L173.676 185.444V195.822C173.596 197.021 173.716 198.224 174.032 199.385C174.273 199.949 174.729 200.398 175.303 200.635C176.412 200.974 177.575 201.109 178.734 201.035H180.819V209.075H151.97V201.035H153.533C154.848 201.124 156.167 200.989 157.435 200.635C158.007 200.352 158.457 199.878 158.706 199.298C159.083 198.084 159.234 196.813 159.15 195.547V186.457L143.443 162.914C142.64 161.527 141.522 160.342 140.177 159.451C138.873 159.059 137.508 158.902 136.148 158.988L136.161 150.874Z" fill="#1A1A18"/>
<path d="M200.198 150.874H249.088L255.786 169.415L248.16 172.041C247.229 169.874 246.034 167.825 244.602 165.94C243.476 164.569 242.112 163.404 240.573 162.501C239.011 161.58 237.287 160.956 235.49 160.663C233.352 160.422 231.199 160.326 229.047 160.376H221.765V175.792H225.488C226.633 175.847 227.774 175.632 228.818 175.167C229.556 174.816 230.164 174.248 230.559 173.541C230.985 172.481 231.167 171.341 231.093 170.203V167.115H238.718V193.121H231.093V189.37C231.133 188.568 231.034 187.765 230.801 186.995C230.581 186.38 230.22 185.824 229.746 185.369C229.307 184.961 228.775 184.661 228.195 184.494C227.159 184.285 226.101 184.201 225.044 184.244H221.777V196.459C221.709 197.466 221.838 198.477 222.159 199.435C222.424 199.96 222.876 200.369 223.43 200.585C224.486 200.903 225.593 201.03 226.696 200.96H229.11V209H200.262V200.96H202.066C203.516 201.114 204.978 200.83 206.26 200.148C206.654 199.703 206.947 199.181 207.12 198.616C207.293 198.051 207.342 197.457 207.264 196.872V163.452C207.339 162.424 207.21 161.392 206.883 160.413C206.612 159.899 206.16 159.499 205.612 159.288C204.464 158.969 203.27 158.842 202.079 158.913H200.16L200.198 150.874Z" fill="#1A1A18"/>
<path d="M290.798 149.874C300.168 149.874 307.755 152.678 313.559 158.288C319.363 163.898 322.264 171.108 322.264 179.918C322.372 185.422 321 190.857 318.287 195.672C315.729 200.174 311.914 203.862 307.294 206.299C302.063 208.921 296.247 210.211 290.379 210.05C281.652 210.05 274.51 207.687 268.952 202.961C262.233 197.268 258.874 189.658 258.874 180.131C258.874 171.27 261.818 164.019 267.706 158.376C273.595 152.733 281.292 149.899 290.798 149.874ZM290.963 159.126C288.902 159.06 286.854 159.479 284.99 160.349C283.127 161.219 281.502 162.514 280.25 164.127C276.92 168.295 275.255 173.671 275.255 180.256C275.255 186.841 276.81 192.05 279.919 195.884C281.214 197.423 282.839 198.662 284.676 199.512C286.514 200.363 288.519 200.803 290.55 200.803C292.581 200.803 294.586 200.363 296.424 199.512C298.262 198.662 299.886 197.423 301.181 195.884C304.316 191.967 305.883 186.732 305.883 180.181C306 176.212 305.318 172.261 303.875 168.553C302.789 165.74 300.9 163.296 298.436 161.514C296.277 159.982 293.688 159.148 291.027 159.126H290.963Z" fill="#1A1A18"/>
<path d="M327.437 150.873H359.208V158.912H356.756C355.895 158.832 355.028 158.939 354.214 159.225C354.037 159.331 353.894 159.482 353.8 159.663C353.706 159.844 353.664 160.048 353.68 160.25C353.686 160.522 353.76 160.789 353.896 161.025C354.277 161.591 354.702 162.126 355.167 162.626L361.178 169.84L368.498 162.338C369.405 161.363 369.858 160.65 369.858 160.2C369.868 159.996 369.82 159.793 369.719 159.614C369.618 159.435 369.468 159.287 369.286 159.188C368.448 158.891 367.555 158.776 366.668 158.85H364.495V150.811H391.005V158.85C389.62 158.796 388.233 158.909 386.875 159.188C385.888 159.504 384.954 159.963 384.104 160.55C383.176 161.192 382.323 161.934 381.563 162.763L367.329 177.217L383.215 196.296C384.538 197.844 386.13 199.147 387.917 200.147C389.531 200.783 391.264 201.073 393 200.998V209.037H360.644V200.998H363.606C364.464 201.066 365.327 200.968 366.147 200.71C366.307 200.626 366.439 200.499 366.529 200.344C366.619 200.189 366.663 200.013 366.656 199.835C366.446 198.911 365.959 198.07 365.258 197.422L357.124 187.744L347.618 197.397C346.96 198.002 346.542 198.817 346.436 199.697C346.442 199.896 346.505 200.09 346.617 200.256C346.73 200.422 346.887 200.553 347.072 200.635C347.883 200.933 348.75 201.057 349.613 200.998H352.028V209.037H325.149V200.998C326.478 201.045 327.807 200.948 329.114 200.71C329.879 200.519 330.603 200.192 331.25 199.747C332.677 198.692 334.024 197.535 335.278 196.284L350.948 180.343L336.079 162.663C335.009 161.422 333.717 160.383 332.266 159.6C330.693 159.078 329.032 158.857 327.373 158.95L327.437 150.873Z" fill="#1A1A18"/>
<path fill-rule="evenodd" clip-rule="evenodd" d="M25.0483 149.636H74.0399L80.7501 168.165L73.1249 170.778C72.1961 168.607 70.9965 166.557 69.5538 164.677C68.4091 163.313 67.0226 162.165 65.4616 161.289C63.9029 160.36 62.1769 159.736 60.3782 159.451C58.2319 159.201 56.0702 159.1 53.9095 159.151H46.6529V174.592H50.402C51.5505 174.644 52.6954 174.43 53.7443 173.967C54.487 173.612 55.0998 173.04 55.4981 172.329C55.9279 171.269 56.1103 170.128 56.0319 168.99V165.89H63.657V191.921H56.0319V188.17C56.0714 187.367 55.9682 186.563 55.7269 185.794C55.5116 185.178 55.15 184.621 54.672 184.169C54.2299 183.761 53.6934 183.465 53.1089 183.306C52.0687 183.094 51.0057 183.01 49.9445 183.056H46.6529V195.272C46.5875 196.282 46.7169 197.296 47.0342 198.26C47.3084 198.777 47.758 199.184 48.305 199.41C49.3632 199.721 50.4686 199.848 51.5712 199.785H53.9858V207.812H25.0483V199.785H26.9673C28.4167 199.939 29.8795 199.656 31.1612 198.973C31.5519 198.526 31.8422 198.004 32.013 197.439C32.1839 196.874 32.2314 196.281 32.1524 195.697V162.189C32.2309 161.165 32.1013 160.137 31.7712 159.163C31.5056 158.642 31.0527 158.236 30.5003 158.025C29.3516 157.71 28.1579 157.583 26.9673 157.65H25.0483V149.636Z" fill="url(#paint0_radial)"/>
<path fill-rule="evenodd" clip-rule="evenodd" d="M25.0483 149.636H74.0399L80.7501 168.165L73.1249 170.778C72.1961 168.607 70.9965 166.557 69.5538 164.677C68.4091 163.313 67.0226 162.165 65.4616 161.289C63.9029 160.36 62.1769 159.736 60.3782 159.451C58.2319 159.201 56.0702 159.1 53.9095 159.151H46.6529V174.592H50.402C51.5505 174.644 52.6954 174.43 53.7443 173.967C54.487 173.612 55.0998 173.04 55.4981 172.329C55.9279 171.269 56.1103 170.128 56.0319 168.99V165.89H63.657V191.921H56.0319V188.17C56.0714 187.367 55.9682 186.563 55.7269 185.794C55.5116 185.178 55.15 184.621 54.672 184.169C54.2299 183.761 53.6934 183.465 53.1089 183.306C52.0687 183.094 51.0057 183.01 49.9445 183.056H46.6529V195.272C46.5875 196.282 46.7169 197.296 47.0342 198.26C47.3084 198.777 47.758 199.184 48.305 199.41C49.3632 199.721 50.4686 199.848 51.5712 199.785H53.9858V207.812H25.0483V199.785H26.9673C28.4167 199.939 29.8795 199.656 31.1612 198.973C31.5519 198.526 31.8422 198.004 32.013 197.439C32.1839 196.874 32.2314 196.281 32.1524 195.697V162.189C32.2309 161.165 32.1013 160.137 31.7712 159.163C31.5056 158.642 31.0527 158.236 30.5003 158.025C29.3516 157.71 28.1579 157.583 26.9673 157.65H25.0483V149.636Z" fill="url(#paint1_radial)"/>
<path fill-rule="evenodd" clip-rule="evenodd" d="M84.1445 149.636H112.942V157.663H110.4C109.514 157.611 108.624 157.682 107.757 157.875C107.128 158.103 106.604 158.547 106.283 159.126C105.924 159.984 105.768 160.912 105.825 161.839V195.047C105.77 195.885 105.835 196.726 106.016 197.547C106.175 197.874 106.451 198.133 106.791 198.272C107.53 198.504 108.305 198.597 109.079 198.547C112.19 198.629 115.288 198.102 118.191 196.997C120.603 195.934 122.731 194.333 124.405 192.321C126.514 189.708 128.128 186.744 129.171 183.569L136.949 186.194L129.171 207.762H84.1445V199.735H86.9658C87.862 199.784 88.7575 199.63 89.5838 199.285C90.1284 199.007 90.5723 198.571 90.8547 198.035C91.1889 197.179 91.3278 196.261 91.2613 195.347V162.414C91.3201 161.397 91.1821 160.379 90.8547 159.413C90.6388 158.856 90.241 158.385 89.7236 158.075C88.9423 157.747 88.093 157.606 87.2454 157.663H84.1445V149.636Z" fill="url(#paint2_radial)"/>
<path fill-rule="evenodd" clip-rule="evenodd" d="M136.109 149.636H165.428V157.663H163.229C162.245 157.572 161.252 157.692 160.319 158.013C160.126 158.131 159.969 158.297 159.864 158.495C159.759 158.693 159.71 158.915 159.721 159.138C159.892 160.32 160.359 161.442 161.081 162.401L168.872 175.042L177.513 161.914C178.276 160.776 178.708 160.138 178.784 160.013C178.899 159.709 178.959 159.387 178.962 159.063C178.974 158.86 178.935 158.656 178.848 158.471C178.762 158.286 178.631 158.124 178.467 158C177.745 157.699 176.958 157.583 176.179 157.663H173.142V149.636H196.653V157.663C195.177 157.588 193.702 157.832 192.332 158.375C191.118 159.22 190.107 160.317 189.371 161.589L173.675 184.169V194.546C173.592 195.75 173.712 196.958 174.031 198.122C174.272 198.687 174.728 199.136 175.302 199.373C176.415 199.713 177.583 199.849 178.746 199.773H180.83V207.8H151.995V199.773H153.545C154.83 199.862 156.121 199.727 157.358 199.373C157.929 199.089 158.38 198.615 158.628 198.035C158.997 196.82 159.144 195.55 159.061 194.284V185.194L143.366 161.639C142.566 160.246 141.448 159.056 140.099 158.163C138.799 157.779 137.439 157.627 136.083 157.713L136.109 149.636Z" fill="url(#paint3_radial)"/>
<path fill-rule="evenodd" clip-rule="evenodd" d="M200.326 149.636H249.305L256.015 168.165L248.39 170.778C247.461 168.607 246.261 166.557 244.818 164.677C243.697 163.301 242.332 162.136 240.79 161.239C239.231 160.31 237.505 159.686 235.706 159.401C233.564 159.151 231.407 159.051 229.25 159.101H221.956V174.542H225.705C226.853 174.594 227.998 174.38 229.047 173.917C229.79 173.562 230.403 172.99 230.801 172.279C231.231 171.219 231.413 170.078 231.335 168.94V165.84H238.96V191.871H231.335V188.12C231.374 187.317 231.271 186.513 231.03 185.744C230.814 185.128 230.453 184.571 229.975 184.119C229.533 183.711 228.996 183.415 228.412 183.256C227.372 183.044 226.309 182.96 225.247 183.006H221.968V195.222C221.903 196.232 222.032 197.246 222.35 198.21C222.624 198.727 223.073 199.134 223.621 199.36C224.679 199.671 225.784 199.798 226.887 199.735H229.301V207.762H200.326V199.735H202.245C203.694 199.889 205.157 199.606 206.439 198.923C206.829 198.476 207.12 197.954 207.29 197.389C207.461 196.824 207.509 196.231 207.43 195.647V162.189C207.504 161.164 207.37 160.136 207.036 159.163C206.77 158.642 206.317 158.236 205.765 158.025C204.616 157.71 203.423 157.583 202.232 157.65H200.313L200.326 149.636Z" fill="url(#paint4_radial)"/>
<path fill-rule="evenodd" clip-rule="evenodd" d="M290.735 148.698C300.114 148.698 307.706 151.494 313.509 157.087C319.313 162.68 322.215 169.874 322.215 178.667C322.32 184.16 320.948 189.581 318.237 194.384C315.673 198.873 311.853 202.544 307.231 204.961C302.001 207.585 296.185 208.875 290.316 208.712C281.581 208.712 274.435 206.357 268.877 201.648C262.158 195.972 258.799 188.378 258.799 178.867C258.799 170.032 261.764 162.797 267.695 157.162C273.625 151.528 281.327 148.714 290.799 148.723L290.735 148.698ZM290.913 157.912C288.852 157.844 286.803 158.263 284.939 159.133C283.075 160.003 281.45 161.299 280.2 162.914C276.862 167.081 275.193 172.449 275.193 179.017C275.193 185.586 276.743 190.787 279.844 194.621C281.142 196.156 282.767 197.391 284.604 198.239C286.441 199.087 288.446 199.526 290.475 199.526C292.504 199.526 294.509 199.087 296.346 198.239C298.183 197.391 299.808 196.156 301.106 194.621C304.24 190.712 305.808 185.482 305.808 178.93C305.927 174.97 305.245 171.025 303.8 167.327C302.712 164.515 300.818 162.075 298.348 160.301C296.182 158.765 293.583 157.93 290.913 157.912Z" fill="url(#paint5_radial)"/>
<path fill-rule="evenodd" clip-rule="evenodd" d="M327.399 149.636H359.17V157.662H356.717C355.878 157.587 355.032 157.693 354.239 157.975C354.063 158.081 353.919 158.232 353.825 158.413C353.731 158.594 353.69 158.798 353.706 159C353.712 159.268 353.786 159.53 353.922 159.763C354.302 160.332 354.727 160.872 355.192 161.376L361.28 168.678L368.638 161.176C369.553 160.176 369.998 159.45 369.998 159.013C370.009 158.808 369.962 158.604 369.863 158.424C369.765 158.243 369.618 158.092 369.439 157.988C368.593 157.689 367.691 157.574 366.795 157.65H364.597V149.623H391.145V157.65C389.759 157.596 388.372 157.709 387.015 157.988C386.027 158.302 385.093 158.761 384.244 159.35C383.313 159.989 382.46 160.731 381.703 161.563L367.405 176.079L383.189 195.046C384.519 196.587 386.11 197.89 387.892 198.897C389.506 199.531 391.239 199.821 392.975 199.747V207.774H360.619V199.747H363.58C364.438 199.811 365.301 199.713 366.122 199.46C366.283 199.375 366.417 199.246 366.507 199.089C366.597 198.932 366.64 198.752 366.63 198.572C366.423 197.65 365.941 196.81 365.245 196.159L357.111 186.507L347.682 196.097C347.016 196.712 346.596 197.541 346.5 198.435C346.505 198.636 346.567 198.831 346.679 198.999C346.792 199.167 346.95 199.301 347.135 199.385C347.971 199.691 348.865 199.811 349.753 199.735H352.079V207.762H325.149V199.735C326.483 199.781 327.817 199.681 329.127 199.435C329.896 199.25 330.624 198.928 331.275 198.485C332.7 197.431 334.047 196.278 335.304 195.034L350.948 179.13L336.028 161.376C334.97 160.143 333.702 159.102 332.279 158.3C330.708 157.786 329.052 157.57 327.399 157.662V149.636Z" fill="url(#paint6_radial)"/>
<path fill-rule="evenodd" clip-rule="evenodd" d="M26.1806 113.915C23.1073 116.168 20.3472 118.808 17.9708 121.767C14.2114 126.282 11.816 131.744 11.0573 137.533C10.4218 143.144 12.0156 148.78 15.5053 153.262C17.0481 155.257 18.8513 157.044 20.8684 158.575C24.9523 161.677 29.3926 164.296 34.098 166.377C38.8677 168.538 43.8738 170.153 49.0179 171.191C51.0143 171.504 52.9104 172.265 54.5588 173.417C54.3129 173.611 54.0491 173.783 53.7709 173.929C52.2839 172.968 50.6083 172.325 48.8527 172.041C43.6384 170.991 38.564 169.355 33.7295 167.165C28.9641 165.048 24.4682 162.388 20.3346 159.238C18.2569 157.667 16.3982 155.835 14.8064 153.787C11.1711 149.13 9.5088 143.269 10.1677 137.433C10.9598 131.5 13.4252 125.904 17.2845 121.279C19.7086 118.259 22.5242 115.565 25.6595 113.265L26.1933 113.965L26.1806 113.915ZM55.4103 185.044L55.1053 185.544C52.4238 189.795 47.4801 194.221 40.9098 197.672C27.2481 204.899 13.8532 206.424 6.36788 204.837C4.38675 204.532 2.53988 203.662 1.0557 202.336C0.496305 201.79 0.13387 201.079 0.0237247 200.311C-0.086421 199.544 0.0617739 198.762 0.445685 198.085C1.71654 195.509 5.78329 192.471 13.6118 189.42L13.9422 190.233C6.31705 193.196 2.41551 196.072 1.23362 198.472C0.936528 198.993 0.820442 199.595 0.903032 200.186C0.985623 200.777 1.26236 201.326 1.69113 201.748C3.05319 202.934 4.73473 203.707 6.53309 203.974C13.8532 205.549 27.0066 203.974 40.465 196.885C46.8193 193.509 51.7248 189.183 54.3301 185.057C54.508 184.782 54.6605 184.519 54.813 184.244C55.0455 184.485 55.2462 184.754 55.4103 185.044Z" fill="#F4A100"/>
<path fill-rule="evenodd" clip-rule="evenodd" d="M32.1651 168.54C36.7171 170.673 41.627 171.97 46.6529 172.366V173.254C42.5735 172.954 35.7998 171.778 32.1397 170.04V168.54H32.1651ZM46.7292 196.922C40.1733 201.496 32.827 204.86 25.0483 206.849V205.599C33.1818 203.523 41.2264 200.123 46.6529 196.072C46.6631 196.356 46.6885 196.64 46.7292 196.922Z" fill="#9A5A00"/>
<path fill-rule="evenodd" clip-rule="evenodd" d="M29.3322 13.6408L74.2316 11.3528L94.8195 24.1558L111.989 65.0406L17.9707 121.354L29.3322 13.6408Z" fill="url(#paint7_linear)"/>
<path fill-rule="evenodd" clip-rule="evenodd" d="M54.2793 12.3029L66.3652 0L74.2318 11.3527L54.2793 12.3029Z" fill="url(#paint8_linear)"/>
<path fill-rule="evenodd" clip-rule="evenodd" d="M102.547 42.3227L108.659 26.2939L94.8579 24.1809L102.547 42.3227Z" fill="url(#paint9_linear)"/>
<path fill-rule="evenodd" clip-rule="evenodd" d="M59.9971 12.0779L66.3641 0L74.2307 11.3527L59.9971 12.0779Z" fill="url(#paint10_linear)"/>
<path fill-rule="evenodd" clip-rule="evenodd" d="M100.297 37.1465L108.659 26.2939L94.8579 24.1809L100.297 37.1465Z" fill="url(#paint11_linear)"/>
<path fill-rule="evenodd" clip-rule="evenodd" d="M17.9707 121.354L64.967 48.1993L60.6588 37.9844L49.9455 12.5908L29.3322 13.6411L17.9707 121.354Z" fill="url(#paint12_linear)"/>
<path fill-rule="evenodd" clip-rule="evenodd" d="M64.9663 48.1989L111.988 65.0404L104.096 46.2734L76.188 47.6363L64.9663 48.1989Z" fill="url(#paint13_linear)"/>
<path fill-rule="evenodd" clip-rule="evenodd" d="M60.6587 37.9844L49.9453 12.5908L29.332 13.6411L64.9669 48.1993L60.6587 37.9844Z" fill="url(#paint14_linear)"/>
<path fill-rule="evenodd" clip-rule="evenodd" d="M104.096 46.2734L76.188 47.6363L64.9663 48.1989L111.988 65.0404L104.096 46.2734Z" fill="url(#paint15_linear)"/>
<path fill-rule="evenodd" clip-rule="evenodd" d="M94.8574 24.1808L105.215 48.9117L64.9669 48.1991L47.0986 12.7406L74.2314 11.3528L94.8574 24.1808Z" fill="#815E00"/>
<path fill-rule="evenodd" clip-rule="evenodd" d="M94.8574 24.1807L104.173 46.261L64.9669 48.1989L49.9199 12.5279L74.1933 11.3276L94.8574 24.1807Z" fill="url(#paint16_radial)"/>
<path fill-rule="evenodd" clip-rule="evenodd" d="M76.189 47.6364L60.6592 37.9841L64.9674 48.1991L76.189 47.6364Z" fill="url(#paint17_linear)"/>
<path fill-rule="evenodd" clip-rule="evenodd" d="M83.2927 33.1956L91.7948 38.4968L81.6533 35.7337L83.2927 33.1956Z" fill="#B77700"/>
<path fill-rule="evenodd" clip-rule="evenodd" d="M70.877 25.4814L62.3623 20.1926L69.2503 28.0195L70.877 25.4814Z" fill="#B77700"/>
<path fill-rule="evenodd" clip-rule="evenodd" d="M83.2925 33.1955L91.7945 38.4968L83.9406 32.1953L83.2925 33.1955Z" fill="#673900"/>
<path fill-rule="evenodd" clip-rule="evenodd" d="M70.877 25.4814L62.3623 20.1926L71.5252 24.4686L70.877 25.4814Z" fill="#673900"/>
<path fill-rule="evenodd" clip-rule="evenodd" d="M66.9756 23.3181L69.619 24.9685L69.136 25.7187L66.9756 23.3181Z" fill="#FFDD75"/>
<path fill-rule="evenodd" clip-rule="evenodd" d="M86.953 35.7461L84.2969 34.0957L83.814 34.8459L86.953 35.7461Z" fill="#FFDD75"/>
<defs>
<radialGradient id="paint0_radial" cx="0" cy="0" r="1" gradientUnits="userSpaceOnUse" gradientTransform="translate(131.75 149.898) scale(267.973 263.638)">
<stop stop-color="#EF7C00"/>
<stop offset="1" stop-color="#9A5A00"/>
</radialGradient>
<radialGradient id="paint1_radial" cx="0" cy="0" r="1" gradientUnits="userSpaceOnUse" gradientTransform="translate(5799.65 7124.41) scale(11745.3 12267.1)">
<stop stop-color="#FA9603"/>
<stop offset="1" stop-color="#F59303"/>
</radialGradient>
<radialGradient id="paint2_radial" cx="0" cy="0" r="1" gradientUnits="userSpaceOnUse" gradientTransform="translate(5558.35 7118.41) scale(11134.3 12256.5)">
<stop stop-color="#FA9603"/>
<stop offset="1" stop-color="#F59303"/>
</radialGradient>
<radialGradient id="paint3_radial" cx="0" cy="0" r="1" gradientUnits="userSpaceOnUse" gradientTransform="translate(6415.28 7122.91) scale(12772.2 12265)">
<stop stop-color="#F69303"/>
<stop offset="1" stop-color="#F69303"/>
</radialGradient>
<radialGradient id="paint4_radial" cx="0" cy="0" r="1" gradientUnits="userSpaceOnUse" gradientTransform="translate(5974.91 7118.41) scale(11745.8 12257.1)">
<stop stop-color="#F69303"/>
<stop offset="1" stop-color="#F69303"/>
</radialGradient>
<radialGradient id="paint5_radial" cx="0" cy="0" r="1" gradientUnits="userSpaceOnUse" gradientTransform="translate(6833.69 7345.45) scale(13373 12657.5)">
<stop stop-color="#FA9603"/>
<stop offset="1" stop-color="#F59303"/>
</radialGradient>
<radialGradient id="paint6_radial" cx="0" cy="0" r="1" gradientUnits="userSpaceOnUse" gradientTransform="translate(7356.63 7121.38) scale(14301.7 12261.8)">
<stop stop-color="#FA9603"/>
<stop offset="1" stop-color="#F59303"/>
</radialGradient>
<linearGradient id="paint7_linear" x1="68.8177" y1="111.077" x2="54.2583" y2="41.0888" gradientUnits="userSpaceOnUse">
<stop stop-color="#EF7C00"/>
<stop offset="1" stop-color="#FFCF35"/>
</linearGradient>
<linearGradient id="paint8_linear" x1="68.3604" y1="6.53906" x2="60.5058" y2="16.9901" gradientUnits="userSpaceOnUse">
<stop stop-color="#511C00"/>
<stop offset="1" stop-color="#815E00"/>
</linearGradient>
<linearGradient id="paint9_linear" x1="97.3361" y1="36.4213" x2="101.972" y2="25.3268" gradientUnits="userSpaceOnUse">
<stop stop-color="#815E00"/>
<stop offset="1" stop-color="#511C00"/>
</linearGradient>
<linearGradient id="paint10_linear" x1="61.9034" y1="12.0279" x2="67.0378" y2="8.00845" gradientUnits="userSpaceOnUse">
<stop stop-color="#F4A100"/>
<stop offset="1" stop-color="#FFDD75"/>
</linearGradient>
<linearGradient id="paint11_linear" x1="1203.81" y1="382.031" x2="1200.4" y2="285.551" gradientUnits="userSpaceOnUse">
<stop stop-color="#F4A100"/>
<stop offset="1" stop-color="#FFDD75"/>
</linearGradient>
<linearGradient id="paint12_linear" x1="3.8896" y1="70.4421" x2="52.0067" y2="63.0458" gradientUnits="userSpaceOnUse">
<stop stop-color="#FFCF35"/>
<stop offset="1" stop-color="#F4A100"/>
</linearGradient>
<linearGradient id="paint13_linear" x1="3806.96" y1="1389.05" x2="3715.08" y2="781.961" gradientUnits="userSpaceOnUse">
<stop stop-color="#EF7C00"/>
<stop offset="1" stop-color="#FFCF35"/>
</linearGradient>
<linearGradient id="paint14_linear" x1="1013.57" y1="214.847" x2="1798.92" y2="1275.47" gradientUnits="userSpaceOnUse">
<stop stop-color="#FFCF35"/>
<stop offset="1" stop-color="#F4A100"/>
</linearGradient>
<linearGradient id="paint15_linear" x1="79.1364" y1="60.7394" x2="104.944" y2="48.985" gradientUnits="userSpaceOnUse">
<stop stop-color="#F4A100"/>
<stop offset="1" stop-color="#F3AD2D"/>
</linearGradient>
<radialGradient id="paint16_radial" cx="0" cy="0" r="1" gradientUnits="userSpaceOnUse" gradientTransform="translate(72.9606 15.6787) scale(45.4586 44.7232)">
<stop stop-color="#FFF9D1"/>
<stop offset="1" stop-color="#FFDD75"/>
</radialGradient>
<linearGradient id="paint17_linear" x1="859.205" y1="424.722" x2="870.128" y2="399.935" gradientUnits="userSpaceOnUse">
<stop stop-color="#511C00"/>
<stop offset="1" stop-color="#815E00"/>
</linearGradient>
</defs>
</svg>
