<svg width="92" height="30" viewBox="0 0 92 30" fill="none" xmlns="http://www.w3.org/2000/svg">
<path d="M20.6655 21.2617C19.1548 22.6244 17.1603 23.3797 14.9714 23.3797C10.1463 23.3797 6.6029 19.8242 6.6029 14.9426C6.6029 10.0609 10.0336 6.65507 14.9714 6.65507C17.1221 6.65507 19.1548 7.37383 20.7037 8.73651L21.7565 9.64497L26.4342 4.95301L25.2634 3.89314C22.5109 1.39924 18.8565 0 14.9697 0C6.29766 0 0 6.27915 0 14.906C0 23.4963 6.44855 30 14.9697 30C18.9294 30 22.6219 28.6008 25.3398 26.0668L26.4706 25.007L21.72 20.3185L20.6655 21.2617Z" fill="black"/>
<path d="M14.5573 10.5879C17.2389 10.5879 19.4119 12.5604 19.4119 14.9997C19.4119 17.4359 17.2389 19.4114 14.5573 19.4114C11.8775 19.4114 9.70605 17.4359 9.70605 14.9997C9.70773 12.5619 11.8791 10.5879 14.5573 10.5879Z" fill="#FF3D2E"/>
<path d="M32.4664 18.4926L30.1572 23.8H28.9062L31.2195 18.7879H28.25V17.8281H32.4664V18.4926Z" fill="black"/>
<path d="M33.34 23.2176C33.34 23.0289 33.4029 22.8758 33.5287 22.7582C33.6572 22.6406 33.8172 22.5818 34.0086 22.5818C34.2027 22.5818 34.3627 22.6406 34.4885 22.7582C34.617 22.8758 34.6812 23.0289 34.6812 23.2176C34.6812 23.4035 34.6184 23.5553 34.4926 23.6729C34.3668 23.7877 34.2055 23.8451 34.0086 23.8451C33.8145 23.8451 33.6545 23.7877 33.5287 23.6729C33.4029 23.5553 33.34 23.4035 33.34 23.2176Z" fill="black"/>
<path d="M39.6934 21.3309C39.6934 22.1566 39.5225 22.7883 39.1807 23.2258C38.8389 23.6633 38.3385 23.882 37.6795 23.882C37.0287 23.882 36.5311 23.6674 36.1865 23.2381C35.842 22.8088 35.6656 22.1936 35.6574 21.3924V20.2932C35.6574 19.4592 35.8297 18.8262 36.1742 18.3941C36.5215 17.9621 37.0205 17.7461 37.6713 17.7461C38.3221 17.7461 38.8197 17.9607 39.1643 18.39C39.5088 18.8166 39.6852 19.4305 39.6934 20.2316V21.3309ZM38.508 20.125C38.508 19.6301 38.4396 19.2705 38.3029 19.0463C38.1689 18.8193 37.9584 18.7059 37.6713 18.7059C37.3924 18.7059 37.1859 18.8139 37.052 19.0299C36.9207 19.2432 36.851 19.5781 36.8428 20.0348V21.4867C36.8428 21.9734 36.9084 22.3357 37.0396 22.5736C37.1736 22.8088 37.3869 22.9264 37.6795 22.9264C37.9693 22.9264 38.1785 22.8129 38.307 22.5859C38.4355 22.359 38.5025 22.0117 38.508 21.5441V20.125Z" fill="black"/>
<path d="M46.6373 21.6221C46.6373 22.333 46.4855 22.8881 46.182 23.2873C45.8785 23.6838 45.4547 23.882 44.9105 23.882C44.4293 23.882 44.0451 23.6975 43.758 23.3283L43.7047 23.8H42.6383V17.5H43.8236V19.76C44.0971 19.44 44.4566 19.2801 44.9023 19.2801C45.4437 19.2801 45.8676 19.4797 46.1738 19.8789C46.4828 20.2754 46.6373 20.8346 46.6373 21.5564V21.6221ZM45.452 21.5359C45.452 21.0875 45.3809 20.7607 45.2387 20.5557C45.0965 20.3479 44.8846 20.2439 44.6029 20.2439C44.2256 20.2439 43.9658 20.3984 43.8236 20.7074V22.4588C43.9686 22.7705 44.2311 22.9264 44.6111 22.9264C44.9939 22.9264 45.2455 22.7377 45.3658 22.3604C45.4232 22.1799 45.452 21.9051 45.452 21.5359Z" fill="black"/>
<path d="M48.9793 22.1225L49.7996 19.3621H51.0711L49.2869 24.4891L49.1885 24.7229C48.9232 25.3025 48.4857 25.5924 47.876 25.5924C47.7037 25.5924 47.5287 25.5664 47.351 25.5145V24.6162L47.5314 24.6203C47.7557 24.6203 47.9225 24.5861 48.0318 24.5178C48.1439 24.4494 48.2314 24.3359 48.2943 24.1773L48.4338 23.8123L46.8793 19.3621H48.1549L48.9793 22.1225Z" fill="black"/>
<path d="M53.7576 20.8633L54.1021 17.8281H57.449V18.8166H55.0742L54.9266 20.1004C55.2082 19.95 55.5076 19.8748 55.8248 19.8748C56.3936 19.8748 56.8393 20.0512 57.1619 20.4039C57.4846 20.7566 57.6459 21.2502 57.6459 21.8846C57.6459 22.2701 57.5639 22.616 57.3998 22.9223C57.2385 23.2258 57.0061 23.4623 56.7025 23.6318C56.399 23.7986 56.0408 23.882 55.6279 23.882C55.267 23.882 54.932 23.8096 54.623 23.6646C54.3141 23.517 54.0693 23.3105 53.8889 23.0453C53.7111 22.7801 53.6168 22.4779 53.6059 22.1389H54.7789C54.8035 22.3877 54.8896 22.5818 55.0373 22.7213C55.1877 22.858 55.3832 22.9264 55.6238 22.9264C55.8918 22.9264 56.0982 22.8307 56.2432 22.6393C56.3881 22.4451 56.4605 22.1717 56.4605 21.8189C56.4605 21.4799 56.3771 21.2201 56.2104 21.0396C56.0436 20.8592 55.807 20.7689 55.5008 20.7689C55.2191 20.7689 54.9908 20.8428 54.8158 20.9904L54.701 21.0971L53.7576 20.8633Z" fill="black"/>
<path d="M62.8344 21.6139H61.8541V23.8H60.6236V17.8281H62.8426C63.548 17.8281 64.0922 17.9854 64.475 18.2998C64.8578 18.6143 65.0492 19.0586 65.0492 19.6328C65.0492 20.0402 64.9604 20.3807 64.7826 20.6541C64.6076 20.9248 64.341 21.1408 63.9828 21.3021L65.2748 23.7426V23.8H63.9541L62.8344 21.6139ZM61.8541 20.6172H62.8467C63.1557 20.6172 63.3949 20.5393 63.5644 20.3834C63.734 20.2248 63.8187 20.0074 63.8187 19.7312C63.8187 19.4496 63.7381 19.2281 63.5768 19.0668C63.4182 18.9055 63.1734 18.8248 62.8426 18.8248H61.8541V20.6172Z" fill="black"/>
<path d="M67.9531 23.882C67.3023 23.882 66.7719 23.6824 66.3617 23.2832C65.9543 22.884 65.7506 22.3521 65.7506 21.6877V21.5729C65.7506 21.1271 65.8367 20.7293 66.009 20.3793C66.1812 20.0266 66.4246 19.7559 66.7391 19.5672C67.0562 19.3758 67.4172 19.2801 67.8219 19.2801C68.4289 19.2801 68.9061 19.4715 69.2533 19.8543C69.6033 20.2371 69.7783 20.7799 69.7783 21.4826V21.9666H66.9523C66.9906 22.2564 67.1055 22.4889 67.2969 22.6639C67.491 22.8389 67.7357 22.9264 68.0311 22.9264C68.4877 22.9264 68.8445 22.7609 69.1016 22.4301L69.684 23.0822C69.5062 23.3338 69.2656 23.5307 68.9621 23.6729C68.6586 23.8123 68.3223 23.882 67.9531 23.882ZM67.8178 20.2398C67.5826 20.2398 67.3912 20.3191 67.2436 20.4777C67.0986 20.6363 67.0057 20.8633 66.9646 21.1586H68.6135V21.0643C68.608 20.8018 68.5369 20.5994 68.4002 20.4572C68.2635 20.3123 68.0693 20.2398 67.8178 20.2398Z" fill="black"/>
<path d="M72.0588 22.3521L72.8832 19.3621H74.1219L72.6248 23.8H71.4928L69.9957 19.3621H71.2344L72.0588 22.3521Z" fill="black"/>
<path d="M75.8979 23.8H74.7084V19.3621H75.8979V23.8ZM74.6387 18.2137C74.6387 18.0359 74.6975 17.8896 74.815 17.7748C74.9353 17.66 75.098 17.6025 75.3031 17.6025C75.5055 17.6025 75.6668 17.66 75.7871 17.7748C75.9074 17.8896 75.9676 18.0359 75.9676 18.2137C75.9676 18.3941 75.9061 18.5418 75.783 18.6566C75.6627 18.7715 75.5027 18.8289 75.3031 18.8289C75.1035 18.8289 74.9422 18.7715 74.8191 18.6566C74.6988 18.5418 74.6387 18.3941 74.6387 18.2137Z" fill="black"/>
<path d="M78.9207 23.882C78.2699 23.882 77.7394 23.6824 77.3293 23.2832C76.9219 22.884 76.7182 22.3521 76.7182 21.6877V21.5729C76.7182 21.1271 76.8043 20.7293 76.9766 20.3793C77.1488 20.0266 77.3922 19.7559 77.7066 19.5672C78.0238 19.3758 78.3848 19.2801 78.7895 19.2801C79.3965 19.2801 79.8736 19.4715 80.2209 19.8543C80.5709 20.2371 80.7459 20.7799 80.7459 21.4826V21.9666H77.9199C77.9582 22.2564 78.073 22.4889 78.2645 22.6639C78.4586 22.8389 78.7033 22.9264 78.9986 22.9264C79.4553 22.9264 79.8121 22.7609 80.0691 22.4301L80.6516 23.0822C80.4738 23.3338 80.2332 23.5307 79.9297 23.6729C79.6262 23.8123 79.2898 23.882 78.9207 23.882ZM78.7853 20.2398C78.5502 20.2398 78.3588 20.3191 78.2111 20.4777C78.0662 20.6363 77.9732 20.8633 77.9322 21.1586H79.5811V21.0643C79.5756 20.8018 79.5045 20.5994 79.3678 20.4572C79.2311 20.3123 79.0369 20.2398 78.7853 20.2398Z" fill="black"/>
<path d="M85.2822 22.1881L85.8646 19.3621H87.009L85.8769 23.8H84.8844L84.0436 21.0068L83.2027 23.8H82.2143L81.0822 19.3621H82.2266L82.8049 22.184L83.617 19.3621H84.4742L85.2822 22.1881Z" fill="black"/>
<path d="M90.0031 22.5736C90.0031 22.4287 89.9307 22.3152 89.7857 22.2332C89.6436 22.1484 89.4139 22.0732 89.0967 22.0076C88.0412 21.7861 87.5135 21.3377 87.5135 20.6623C87.5135 20.2686 87.6762 19.9404 88.0016 19.6779C88.3297 19.4127 88.7576 19.2801 89.2853 19.2801C89.8486 19.2801 90.2984 19.4127 90.6348 19.6779C90.9738 19.9432 91.1434 20.2877 91.1434 20.7115H89.958C89.958 20.542 89.9033 20.4025 89.7939 20.2932C89.6846 20.1811 89.5137 20.125 89.2812 20.125C89.0816 20.125 88.9271 20.1701 88.8178 20.2604C88.7084 20.3506 88.6537 20.4654 88.6537 20.6049C88.6537 20.7361 88.7152 20.8428 88.8383 20.9248C88.9641 21.0041 89.1746 21.0738 89.4699 21.134C89.7652 21.1914 90.0141 21.257 90.2164 21.3309C90.8426 21.5605 91.1557 21.9584 91.1557 22.5244C91.1557 22.9291 90.982 23.2572 90.6348 23.5088C90.2875 23.7576 89.8391 23.882 89.2894 23.882C88.9176 23.882 88.5867 23.8164 88.2969 23.6852C88.0098 23.5512 87.7842 23.3693 87.6201 23.1396C87.4561 22.9072 87.374 22.657 87.374 22.3891H88.4978C88.5088 22.5996 88.5867 22.7609 88.7316 22.873C88.8766 22.9852 89.0707 23.0412 89.3141 23.0412C89.541 23.0412 89.7119 22.9988 89.8268 22.9141C89.9443 22.8266 90.0031 22.7131 90.0031 22.5736Z" fill="black"/>
<path d="M33.9706 1.76465L35.2583 5.72764L39.4252 5.72764L36.0541 8.1769L37.3418 12.1399L33.9706 9.69063L30.5995 12.1399L31.8872 8.1769L28.5161 5.72764L32.683 5.72764L33.9706 1.76465Z" fill="#FF3D2E"/>
<path d="M47.1352 1.76465L48.4229 5.72764L52.5898 5.72764L49.2187 8.1769L50.5063 12.1399L47.1352 9.69063L43.7641 12.1399L45.0517 8.1769L41.6806 5.72764L45.8475 5.72764L47.1352 1.76465Z" fill="#FF3D2E"/>
<path d="M59.7353 1.76465L61.0229 5.72764L65.1899 5.72764L61.8188 8.1769L63.1064 12.1399L59.7353 9.69063L56.3642 12.1399L57.6518 8.1769L54.2807 5.72764L58.4476 5.72764L59.7353 1.76465Z" fill="#FF3D2E"/>
<path d="M72.3354 1.76465L73.623 5.72764L77.79 5.72764L74.4189 8.1769L75.7065 12.1399L72.3354 9.69063L68.9643 12.1399L70.2519 8.1769L66.8808 5.72764L71.0477 5.72764L72.3354 1.76465Z" fill="#FF3D2E"/>
<path d="M84.935 1.76465L86.2227 5.72764L90.3896 5.72764L87.0185 8.1769L88.3061 12.1399L84.935 9.69063L81.5639 12.1399L82.8515 8.1769L79.4804 5.72764L83.6473 5.72764L84.935 1.76465Z" fill="#FF3D2E"/>
</svg>
