<svg width="213" height="70" viewBox="0 0 213 70" fill="none" xmlns="http://www.w3.org/2000/svg">
<path d="M48.2195 49.6107C44.6946 52.7904 40.0406 54.5527 34.9334 54.5527C23.6747 54.5527 15.4068 46.2565 15.4068 34.866C15.4068 23.4755 23.4117 15.5285 34.9334 15.5285C39.9516 15.5285 44.6946 17.2056 48.3086 20.3852L50.7651 22.5049L61.6797 11.557L58.948 9.084C52.5255 3.26488 43.9986 0 34.9293 0C14.6945 0 0 14.6514 0 34.7807C0 54.8248 15.0466 70 34.9293 70C44.1685 70 52.7845 66.7351 59.1261 60.8226L61.7647 58.3496L50.6801 47.4098L48.2195 49.6107Z" fill="white"/>
<path d="M33.9671 24.7056C40.224 24.7056 45.2945 29.308 45.2945 34.9997C45.2945 40.6842 40.224 45.2938 33.9671 45.2938C27.7141 45.2938 22.6475 40.6842 22.6475 34.9997C22.6514 29.3116 27.718 24.7056 33.9671 24.7056Z" fill="#FF3D2E"/>
<path d="M75.7553 43.1495L70.3672 55.5335H67.4482L72.8459 43.8386H65.917V41.5991H75.7553V43.1495Z" fill="white"/>
<path d="M77.7937 54.1745C77.7937 53.7343 77.9405 53.377 78.234 53.1026C78.5339 52.8283 78.9071 52.6911 79.3537 52.6911C79.8067 52.6911 80.1799 52.8283 80.4734 53.1026C80.7733 53.377 80.9232 53.7343 80.9232 54.1745C80.9232 54.6084 80.7765 54.9625 80.483 55.2368C80.1895 55.5048 79.8131 55.6388 79.3537 55.6388C78.9007 55.6388 78.5275 55.5048 78.234 55.2368C77.9405 54.9625 77.7937 54.6084 77.7937 54.1745Z" fill="white"/>
<path d="M92.6182 49.7722C92.6182 51.699 92.2194 53.1728 91.4219 54.1937C90.6243 55.2145 89.4568 55.7249 87.9191 55.7249C86.4007 55.7249 85.2395 55.2241 84.4355 54.2224C83.6316 53.2207 83.2201 51.7851 83.201 49.9157V47.3509C83.201 45.4049 83.6029 43.9279 84.4068 42.9198C85.2171 41.9118 86.3815 41.4077 87.9 41.4077C89.4185 41.4077 90.5797 41.9086 91.3836 42.9103C92.1875 43.9056 92.599 45.3379 92.6182 47.2073V49.7722ZM89.8523 46.9585C89.8523 45.8037 89.6928 44.9647 89.3738 44.4415C89.0612 43.9119 88.5699 43.6472 87.9 43.6472C87.2492 43.6472 86.7675 43.8992 86.4549 44.4032C86.1486 44.9009 85.9859 45.6825 85.9668 46.7479V50.1358C85.9668 51.2715 86.1199 52.1169 86.4262 52.672C86.7388 53.2207 87.2365 53.495 87.9191 53.495C88.5954 53.495 89.0835 53.2302 89.3834 52.7007C89.6833 52.1711 89.8396 51.3608 89.8523 50.2698V46.9585Z" fill="white"/>
<path d="M108.821 50.4517C108.821 52.1105 108.467 53.4057 107.758 54.3372C107.05 55.2623 106.061 55.7249 104.792 55.7249C103.669 55.7249 102.772 55.2942 102.102 54.4329L101.978 55.5335H99.4896V40.8335H102.255V46.1067C102.893 45.3603 103.732 44.987 104.772 44.987C106.036 44.987 107.025 45.4528 107.739 46.3843C108.46 47.3094 108.821 48.6142 108.821 50.2985V50.4517ZM106.055 50.2507C106.055 49.2043 105.889 48.4419 105.557 47.9634C105.225 47.4785 104.731 47.236 104.074 47.236C103.193 47.236 102.587 47.5965 102.255 48.3175V52.404C102.594 53.1313 103.206 53.495 104.093 53.495C104.986 53.495 105.573 53.0548 105.854 52.1743C105.988 51.7532 106.055 51.112 106.055 50.2507Z" fill="white"/>
<path d="M114.285 51.6192L116.199 45.1784H119.166L115.003 57.1413L114.773 57.6868C114.155 59.0394 113.134 59.7157 111.711 59.7157C111.309 59.7157 110.901 59.6551 110.486 59.5339V57.438L110.907 57.4476C111.43 57.4476 111.819 57.3678 112.075 57.2083C112.336 57.0488 112.54 56.784 112.687 56.414L113.013 55.5622L109.385 45.1784H112.362L114.285 51.6192Z" fill="white"/>
<path d="M125.435 48.6812L126.239 41.5991H134.048V43.9056H128.507L128.162 46.9011C128.819 46.5502 129.518 46.3747 130.258 46.3747C131.585 46.3747 132.625 46.7862 133.378 47.6093C134.131 48.4323 134.507 49.584 134.507 51.0642C134.507 51.9638 134.316 52.7709 133.933 53.4854C133.557 54.1937 133.014 54.7455 132.306 55.1411C131.598 55.5303 130.762 55.7249 129.799 55.7249C128.957 55.7249 128.175 55.5558 127.454 55.2177C126.733 54.8731 126.162 54.3914 125.741 53.7726C125.326 53.1537 125.106 52.4487 125.081 51.6575H127.818C127.875 52.2381 128.076 52.6911 128.421 53.0165C128.772 53.3355 129.228 53.495 129.789 53.495C130.415 53.495 130.896 53.2717 131.234 52.8251C131.573 52.3721 131.742 51.7341 131.742 50.911C131.742 50.1199 131.547 49.5138 131.158 49.0927C130.769 48.6716 130.217 48.461 129.502 48.461C128.845 48.461 128.312 48.6333 127.904 48.9778L127.636 49.2267L125.435 48.6812Z" fill="white"/>
<path d="M146.614 50.4325H144.327V55.5335H141.455V41.5991H146.633C148.279 41.5991 149.549 41.966 150.442 42.6997C151.335 43.4334 151.782 44.4702 151.782 45.8101C151.782 46.7607 151.574 47.555 151.16 48.1931C150.751 48.8247 150.129 49.3287 149.294 49.7052L152.308 55.3995V55.5335H149.227L146.614 50.4325ZM144.327 48.1069H146.643C147.364 48.1069 147.922 47.9251 148.317 47.5614C148.713 47.1914 148.911 46.6841 148.911 46.0397C148.911 45.3826 148.723 44.8658 148.346 44.4894C147.976 44.1129 147.405 43.9247 146.633 43.9247H144.327V48.1069Z" fill="white"/>
<path d="M158.558 55.7249C157.039 55.7249 155.801 55.2591 154.844 54.3276C153.894 53.3961 153.418 52.1552 153.418 50.6048V50.3368C153.418 49.2968 153.619 48.3685 154.021 47.5519C154.423 46.7288 154.991 46.0972 155.725 45.6569C156.465 45.2103 157.307 44.987 158.251 44.987C159.668 44.987 160.781 45.4336 161.591 46.3269C162.408 47.2201 162.816 48.4866 162.816 50.1263V51.2556H156.222C156.312 51.9319 156.58 52.4742 157.026 52.8825C157.479 53.2909 158.05 53.495 158.739 53.495C159.805 53.495 160.638 53.109 161.237 52.337L162.596 53.8587C162.182 54.4457 161.62 54.905 160.912 55.2368C160.204 55.5622 159.419 55.7249 158.558 55.7249ZM158.242 47.2265C157.693 47.2265 157.246 47.4115 156.902 47.7815C156.564 48.1516 156.347 48.6812 156.251 49.3702H160.098V49.1501C160.086 48.5376 159.92 48.0655 159.601 47.7337C159.282 47.3955 158.829 47.2265 158.242 47.2265Z" fill="white"/>
<path d="M168.137 52.1552L170.061 45.1784H172.951L169.458 55.5335H166.817L163.324 45.1784H166.214L168.137 52.1552Z" fill="white"/>
<path d="M177.095 55.5335H174.32V45.1784H177.095V55.5335ZM174.157 42.4987C174.157 42.084 174.294 41.7427 174.569 41.4747C174.849 41.2067 175.229 41.0728 175.708 41.0728C176.18 41.0728 176.556 41.2067 176.837 41.4747C177.118 41.7427 177.258 42.084 177.258 42.4987C177.258 42.9198 177.114 43.2644 176.827 43.5323C176.547 43.8003 176.173 43.9343 175.708 43.9343C175.242 43.9343 174.865 43.8003 174.578 43.5323C174.298 43.2644 174.157 42.9198 174.157 42.4987Z" fill="white"/>
<path d="M184.149 55.7249C182.63 55.7249 181.392 55.2591 180.435 54.3276C179.485 53.3961 179.009 52.1552 179.009 50.6048V50.3368C179.009 49.2968 179.21 48.3685 179.612 47.5519C180.014 46.7288 180.582 46.0972 181.316 45.6569C182.056 45.2103 182.898 44.987 183.842 44.987C185.259 44.987 186.372 45.4336 187.182 46.3269C187.999 47.2201 188.407 48.4866 188.407 50.1263V51.2556H181.813C181.903 51.9319 182.171 52.4742 182.617 52.8825C183.07 53.2909 183.641 53.495 184.33 53.495C185.396 53.495 186.229 53.109 186.828 52.337L188.187 53.8587C187.773 54.4457 187.211 54.905 186.503 55.2368C185.795 55.5622 185.01 55.7249 184.149 55.7249ZM183.833 47.2265C183.284 47.2265 182.838 47.4115 182.493 47.7815C182.155 48.1516 181.938 48.6812 181.842 49.3702H185.689V49.1501C185.677 48.5376 185.511 48.0655 185.192 47.7337C184.873 47.3955 184.42 47.2265 183.833 47.2265Z" fill="white"/>
<path d="M198.992 51.7724L200.351 45.1784H203.021L200.38 55.5335H198.064L196.102 49.0161L194.14 55.5335H191.834L189.192 45.1784H191.862L193.212 51.7628L195.107 45.1784H197.107L198.992 51.7724Z" fill="white"/>
<path d="M210.008 52.672C210.008 52.3338 209.839 52.069 209.5 51.8776C209.169 51.6798 208.633 51.5044 207.893 51.3513C205.43 50.8345 204.198 49.7881 204.198 48.2122C204.198 47.2935 204.578 46.5278 205.337 45.9153C206.103 45.2965 207.101 44.987 208.333 44.987C209.647 44.987 210.697 45.2965 211.481 45.9153C212.273 46.5342 212.668 47.3381 212.668 48.3271H209.902C209.902 47.9315 209.775 47.6061 209.52 47.3509C209.264 47.0893 208.866 46.9585 208.323 46.9585C207.857 46.9585 207.497 47.0638 207.242 47.2743C206.987 47.4849 206.859 47.7528 206.859 48.0782C206.859 48.3845 207.003 48.6333 207.29 48.8247C207.583 49.0097 208.074 49.1724 208.763 49.3128C209.453 49.4468 210.033 49.5999 210.505 49.7722C211.966 50.3081 212.697 51.2364 212.697 52.5571C212.697 53.5014 212.292 54.267 211.481 54.854C210.671 55.4346 209.625 55.7249 208.342 55.7249C207.475 55.7249 206.703 55.5718 206.026 55.2655C205.356 54.9529 204.83 54.5286 204.447 53.9927C204.064 53.4504 203.873 52.8666 203.873 52.2413H206.495C206.521 52.7326 206.703 53.109 207.041 53.3706C207.379 53.6322 207.832 53.763 208.4 53.763C208.929 53.763 209.328 53.6641 209.596 53.4663C209.87 53.2621 210.008 52.9974 210.008 52.672Z" fill="white"/>
<path d="M79.2642 4.11768L82.2687 13.3647H91.9916L84.1256 19.0796L87.1301 28.3266L79.2642 22.6116L71.3982 28.3266L74.4028 19.0796L66.5368 13.3647H76.2597L79.2642 4.11768Z" fill="#FF3D2E"/>
<path d="M109.982 4.11768L112.987 13.3647H122.71L114.844 19.0796L117.848 28.3266L109.982 22.6116L102.117 28.3266L105.121 19.0796L97.2551 13.3647H106.978L109.982 4.11768Z" fill="#FF3D2E"/>
<path d="M139.382 4.11768L142.387 13.3647H152.11L144.244 19.0796L147.248 28.3266L139.382 22.6116L131.516 28.3266L134.521 19.0796L126.655 13.3647H136.378L139.382 4.11768Z" fill="#FF3D2E"/>
<path d="M168.782 4.11768L171.787 13.3647H181.51L173.644 19.0796L176.648 28.3266L168.782 22.6116L160.916 28.3266L163.921 19.0796L156.055 13.3647H165.778L168.782 4.11768Z" fill="#FF3D2E"/>
<path d="M198.182 4.11768L201.187 13.3647H210.91L203.044 19.0796L206.048 28.3266L198.182 22.6116L190.316 28.3266L193.321 19.0796L185.455 13.3647H195.178L198.182 4.11768Z" fill="#FF3D2E"/>
</svg>
