<svg width="167" height="50" viewBox="0 0 167 50" fill="none" xmlns="http://www.w3.org/2000/svg">
<path d="M34.4425 35.4362C31.9247 37.7074 28.6005 38.9662 24.9524 38.9662C16.9105 38.9662 11.0048 33.0404 11.0048 24.9043C11.0048 16.7682 16.7226 11.0918 24.9524 11.0918C28.5369 11.0918 31.9247 12.2897 34.5061 14.5609L36.2608 16.075L44.0569 8.25502L42.1057 6.48857C37.5182 2.33206 31.4275 0 24.9495 0C10.4961 0 0 10.4653 0 24.8434C0 39.1606 10.7476 50 24.9495 50C31.549 50 37.7032 47.6679 42.2329 43.4447L44.1176 41.6783L36.2001 33.8641L34.4425 35.4362Z" fill="white"/>
<path d="M24.2622 17.647C28.7314 17.647 32.3532 20.9344 32.3532 24.9999C32.3532 29.0603 28.7314 32.3529 24.2622 32.3529C19.7958 32.3529 16.1768 29.0603 16.1768 24.9999C16.1796 20.937 19.7986 17.647 24.2622 17.647Z" fill="#FF3D2E"/>
<path d="M47.6372 34.7722L48.2114 29.7136H53.7896V31.3611H49.8315L49.5854 33.5007C50.0549 33.2501 50.5539 33.1248 51.0825 33.1248C52.0304 33.1248 52.7733 33.4187 53.311 34.0066C53.8488 34.5945 54.1177 35.4171 54.1177 36.4744C54.1177 37.1169 53.981 37.6934 53.7075 38.2039C53.4386 38.7097 53.0513 39.1039 52.5454 39.3865C52.0396 39.6645 51.4425 39.8035 50.7544 39.8035C50.1528 39.8035 49.5946 39.6827 49.0796 39.4412C48.5646 39.1951 48.1567 38.851 47.856 38.4089C47.5597 37.9669 47.4025 37.4633 47.3843 36.8982H49.3394C49.3804 37.3129 49.5239 37.6365 49.77 37.8689C50.0207 38.0968 50.3465 38.2107 50.7476 38.2107C51.1942 38.2107 51.5382 38.0512 51.7798 37.7322C52.0213 37.4086 52.1421 36.9529 52.1421 36.365C52.1421 35.7999 52.0031 35.3669 51.7251 35.0662C51.4471 34.7654 51.0529 34.615 50.5425 34.615C50.0731 34.615 49.6925 34.738 49.4009 34.9841L49.2095 35.1619L47.6372 34.7722ZM55.5669 38.696C55.5669 38.3816 55.6717 38.1264 55.8813 37.9304C56.0955 37.7345 56.3621 37.6365 56.6812 37.6365C57.0047 37.6365 57.2713 37.7345 57.481 37.9304C57.6951 38.1264 57.8022 38.3816 57.8022 38.696C57.8022 39.0059 57.6974 39.2589 57.4878 39.4548C57.2782 39.6462 57.0093 39.7419 56.6812 39.7419C56.3576 39.7419 56.091 39.6462 55.8813 39.4548C55.6717 39.2589 55.5669 39.0059 55.5669 38.696ZM66.1558 35.5515C66.1558 36.9278 65.8709 37.9806 65.3013 38.7097C64.7316 39.4389 63.8976 39.8035 62.7993 39.8035C61.7147 39.8035 60.8853 39.4457 60.311 38.7302C59.7368 38.0147 59.4429 36.9893 59.4292 35.6541V33.822C59.4292 32.432 59.7163 31.377 60.2905 30.657C60.8693 29.9369 61.701 29.5769 62.7856 29.5769C63.8703 29.5769 64.6997 29.9347 65.2739 30.6501C65.8481 31.3611 66.1421 32.3842 66.1558 33.7195V35.5515ZM64.1802 33.5417C64.1802 32.7169 64.0662 32.1176 63.8384 31.7439C63.6151 31.3656 63.2642 31.1765 62.7856 31.1765C62.3208 31.1765 61.9767 31.3565 61.7534 31.7166C61.5347 32.072 61.4185 32.6303 61.4048 33.3914V35.8113C61.4048 36.6225 61.5142 37.2263 61.7329 37.6228C61.9562 38.0147 62.3117 38.2107 62.7993 38.2107C63.2824 38.2107 63.631 38.0216 63.8452 37.6433C64.0594 37.2651 64.1711 36.6863 64.1802 35.907V33.5417ZM77.729 36.0369C77.729 37.2218 77.4761 38.1469 76.9702 38.8123C76.4644 39.4731 75.758 39.8035 74.8511 39.8035C74.049 39.8035 73.4087 39.4958 72.9302 38.8806L72.8413 39.6667H71.064V29.1667H73.0396V32.9333C73.4953 32.4001 74.0946 32.1335 74.8374 32.1335C75.7397 32.1335 76.4461 32.4662 76.9565 33.1316C77.4715 33.7924 77.729 34.7244 77.729 35.9275V36.0369ZM75.7534 35.8933C75.7534 35.1459 75.6349 34.6013 75.3979 34.2595C75.161 33.9132 74.8078 33.74 74.3384 33.74C73.7095 33.74 73.2765 33.9975 73.0396 34.5125V37.4314C73.2811 37.9509 73.7186 38.2107 74.3521 38.2107C74.9901 38.2107 75.4093 37.8962 75.6099 37.2673C75.7056 36.9666 75.7534 36.5085 75.7534 35.8933ZM81.6323 36.8708L82.9995 32.2703H85.1187L82.145 40.8152L81.981 41.2048C81.5389 42.171 80.8097 42.6541 79.7935 42.6541C79.5063 42.6541 79.2147 42.6108 78.9185 42.5242V41.0271L79.2192 41.0339C79.5929 41.0339 79.8709 40.977 80.0532 40.863C80.2401 40.7491 80.3859 40.56 80.4907 40.2957L80.7231 39.6873L78.1323 32.2703H80.2583L81.6323 36.8708ZM95.7896 32.3591C95.7896 32.8422 95.6688 33.2706 95.4272 33.6443C95.1857 34.018 94.853 34.3165 94.4292 34.5398C94.9123 34.7722 95.2951 35.0935 95.5776 35.5037C95.8602 35.9093 96.0015 36.3878 96.0015 36.9392C96.0015 37.8233 95.7007 38.5229 95.0991 39.0378C94.4976 39.5483 93.6795 39.8035 92.645 39.8035C91.6105 39.8035 90.7902 39.546 90.1841 39.031C89.578 38.516 89.2749 37.8188 89.2749 36.9392C89.2749 36.3878 89.4162 35.907 89.6987 35.4968C89.9813 35.0867 90.3618 34.7677 90.8403 34.5398C90.4165 34.3165 90.0838 34.018 89.8423 33.6443C89.6053 33.2706 89.4868 32.8422 89.4868 32.3591C89.4868 31.5115 89.7694 30.837 90.3345 30.3357C90.8996 29.8298 91.6675 29.5769 92.6382 29.5769C93.6043 29.5769 94.37 29.8276 94.9351 30.3289C95.5047 30.8256 95.7896 31.5024 95.7896 32.3591ZM94.019 36.7957C94.019 36.3627 93.8937 36.0164 93.6431 35.7566C93.3924 35.4968 93.0552 35.3669 92.6313 35.3669C92.2121 35.3669 91.8771 35.4968 91.6265 35.7566C91.3758 36.0118 91.2505 36.3582 91.2505 36.7957C91.2505 37.2195 91.3735 37.5613 91.6196 37.821C91.8657 38.0808 92.2075 38.2107 92.645 38.2107C93.0734 38.2107 93.4084 38.0854 93.6499 37.8347C93.896 37.5841 94.019 37.2377 94.019 36.7957ZM93.814 32.4548C93.814 32.0675 93.7114 31.7576 93.5063 31.5251C93.3013 31.2882 93.0119 31.1697 92.6382 31.1697C92.269 31.1697 91.9819 31.2836 91.7769 31.5115C91.5718 31.7393 91.4692 32.0538 91.4692 32.4548C91.4692 32.8513 91.5718 33.1703 91.7769 33.4119C91.9819 33.6534 92.2713 33.7742 92.645 33.7742C93.0187 33.7742 93.3058 33.6534 93.5063 33.4119C93.7114 33.1703 93.814 32.8513 93.814 32.4548ZM104.724 36.0232H103.09V39.6667H101.04V29.7136H104.738C105.914 29.7136 106.82 29.9757 107.458 30.4998C108.097 31.0238 108.416 31.7644 108.416 32.7214C108.416 33.4005 108.267 33.9679 107.971 34.4236C107.68 34.8748 107.235 35.2348 106.638 35.5037L108.792 39.571V39.6667H106.59L104.724 36.0232ZM103.09 34.3621H104.745C105.26 34.3621 105.658 34.2322 105.941 33.9724C106.223 33.7081 106.365 33.3458 106.365 32.8855C106.365 32.4161 106.23 32.047 105.961 31.7781C105.697 31.5092 105.289 31.3748 104.738 31.3748H103.09V34.3621ZM113.255 39.8035C112.171 39.8035 111.287 39.4708 110.603 38.8054C109.924 38.1401 109.584 37.2537 109.584 36.1462V35.9548C109.584 35.212 109.728 34.5489 110.015 33.9656C110.302 33.3777 110.708 32.9265 111.232 32.6121C111.761 32.2931 112.362 32.1335 113.037 32.1335C114.048 32.1335 114.844 32.4526 115.422 33.0906C116.006 33.7286 116.297 34.6332 116.297 35.8044V36.6111H111.587C111.651 37.0942 111.843 37.4815 112.162 37.7732C112.485 38.0649 112.893 38.2107 113.385 38.2107C114.146 38.2107 114.741 37.935 115.169 37.3835L116.14 38.4705C115.844 38.8897 115.443 39.2179 114.937 39.4548C114.431 39.6873 113.871 39.8035 113.255 39.8035ZM113.03 33.7332C112.638 33.7332 112.319 33.8653 112.073 34.1296C111.831 34.394 111.676 34.7722 111.608 35.2644H114.356V35.1072C114.347 34.6697 114.228 34.3324 114 34.0955C113.773 33.8539 113.449 33.7332 113.03 33.7332ZM120.098 37.2537L121.472 32.2703H123.537L121.042 39.6667H119.155L116.66 32.2703H118.724L120.098 37.2537ZM126.497 39.6667H124.514V32.2703H126.497V39.6667ZM124.398 30.3562C124.398 30.06 124.496 29.8162 124.692 29.6248C124.892 29.4333 125.164 29.3376 125.505 29.3376C125.843 29.3376 126.111 29.4333 126.312 29.6248C126.513 29.8162 126.613 30.06 126.613 30.3562C126.613 30.657 126.51 30.9031 126.305 31.0945C126.105 31.2859 125.838 31.3816 125.505 31.3816C125.173 31.3816 124.904 31.2859 124.699 31.0945C124.498 30.9031 124.398 30.657 124.398 30.3562ZM131.535 39.8035C130.45 39.8035 129.566 39.4708 128.882 38.8054C128.203 38.1401 127.864 37.2537 127.864 36.1462V35.9548C127.864 35.212 128.007 34.5489 128.294 33.9656C128.582 33.3777 128.987 32.9265 129.511 32.6121C130.04 32.2931 130.641 32.1335 131.316 32.1335C132.328 32.1335 133.123 32.4526 133.702 33.0906C134.285 33.7286 134.577 34.6332 134.577 35.8044V36.6111H129.867C129.931 37.0942 130.122 37.4815 130.441 37.7732C130.764 38.0649 131.172 38.2107 131.665 38.2107C132.426 38.2107 133.02 37.935 133.449 37.3835L134.419 38.4705C134.123 38.8897 133.722 39.2179 133.216 39.4548C132.71 39.6873 132.15 39.8035 131.535 39.8035ZM131.309 33.7332C130.917 33.7332 130.598 33.8653 130.352 34.1296C130.111 34.394 129.956 34.7722 129.887 35.2644H132.635V35.1072C132.626 34.6697 132.508 34.3324 132.28 34.0955C132.052 33.8539 131.728 33.7332 131.309 33.7332ZM142.137 36.9802L143.108 32.2703H145.015L143.128 39.6667H141.474L140.073 35.0115L138.671 39.6667H137.024L135.137 32.2703H137.044L138.008 36.9734L139.362 32.2703H140.791L142.137 36.9802ZM150.005 37.6228C150.005 37.3813 149.885 37.1921 149.643 37.0554C149.406 36.9141 149.023 36.7888 148.495 36.6794C146.736 36.3103 145.856 35.5629 145.856 34.4373C145.856 33.781 146.127 33.2341 146.669 32.7966C147.216 32.3546 147.93 32.1335 148.809 32.1335C149.748 32.1335 150.498 32.3546 151.058 32.7966C151.623 33.2387 151.906 33.8129 151.906 34.5193H149.93C149.93 34.2367 149.839 34.0043 149.657 33.822C149.474 33.6352 149.19 33.5417 148.802 33.5417C148.47 33.5417 148.212 33.6169 148.03 33.7673C147.847 33.9177 147.756 34.1091 147.756 34.3416C147.756 34.5603 147.859 34.738 148.064 34.8748C148.274 35.0069 148.625 35.1231 149.117 35.2234C149.609 35.3191 150.024 35.4285 150.361 35.5515C151.404 35.9343 151.926 36.5974 151.926 37.5408C151.926 38.2153 151.637 38.7621 151.058 39.1814C150.479 39.5961 149.732 39.8035 148.816 39.8035C148.196 39.8035 147.645 39.6941 147.162 39.4753C146.683 39.252 146.307 38.949 146.034 38.5662C145.76 38.1788 145.624 37.7618 145.624 37.3152H147.497C147.515 37.6661 147.645 37.935 147.886 38.1218C148.128 38.3087 148.451 38.4021 148.857 38.4021C149.235 38.4021 149.52 38.3315 149.711 38.1902C149.907 38.0444 150.005 37.8552 150.005 37.6228Z" fill="white"/>
<path d="M56.6174 2.94116L58.7635 9.54615L65.7084 9.54615L60.0899 13.6283L62.236 20.2332L56.6174 16.1511L50.9989 20.2332L53.145 13.6283L47.5264 9.54615L54.4713 9.54615L56.6174 2.94116Z" fill="#FF3D2E"/>
<path d="M78.5588 2.94116L80.7049 9.54615L87.6498 9.54615L82.0313 13.6283L84.1774 20.2332L78.5588 16.1511L72.9403 20.2332L75.0864 13.6283L69.4678 9.54615L76.4127 9.54615L78.5588 2.94116Z" fill="#FF3D2E"/>
<path d="M99.5588 2.94116L101.705 9.54615L108.65 9.54615L103.031 13.6283L105.177 20.2332L99.5588 16.1511L93.9403 20.2332L96.0864 13.6283L90.4678 9.54615L97.4127 9.54615L99.5588 2.94116Z" fill="#FF3D2E"/>
<path d="M120.559 2.94116L122.705 9.54615L129.65 9.54615L124.031 13.6283L126.177 20.2332L120.559 16.1511L114.94 20.2332L117.086 13.6283L111.468 9.54615L118.413 9.54615L120.559 2.94116Z" fill="#FF3D2E"/>
<path d="M141.559 2.94116L143.705 9.54615L150.65 9.54615L145.031 13.6283L147.177 20.2332L141.559 16.1511L135.94 20.2332L138.086 13.6283L132.468 9.54615L139.413 9.54615L141.559 2.94116Z" fill="#FF3D2E"/>
</svg>
