<svg width="145" height="266" viewBox="0 0 145 266" fill="none" xmlns="http://www.w3.org/2000/svg">
<path fill-rule="evenodd" clip-rule="evenodd" d="M34.8283 146.304C30.8194 149.24 27.2192 152.679 24.1193 156.534C19.2155 162.417 16.0909 169.534 15.1013 177.076C14.2723 184.386 16.3512 191.729 20.9034 197.568C22.9157 200.168 25.2678 202.496 27.899 204.491C33.2261 208.532 39.0182 211.944 45.1559 214.656C51.3777 217.472 57.9076 219.576 64.6177 220.928C67.2218 221.335 70.917 224.286 72.4776 227.878C74.0033 231.389 75.0408 235.024 73.332 235.024C72.4776 226.527 66.6923 222.405 64.4022 222.036C57.6006 220.668 50.9815 218.536 44.6752 215.683C38.4591 212.925 32.5947 209.459 27.2027 205.355C24.4925 203.308 22.068 200.92 19.9916 198.252C15.2497 192.185 13.0813 184.549 13.9409 176.945C14.9741 169.215 18.19 161.925 23.2242 155.899C26.3862 151.965 30.0589 148.454 34.1486 145.457L34.8449 146.369L34.8283 146.304ZM72.9561 238.977L72.5582 239.629C69.0604 245.167 62.6118 250.934 54.0414 255.43C36.2208 264.845 18.7483 266.833 8.98427 264.764C6.40005 264.367 3.99094 263.234 2.05495 261.506C1.32527 260.795 0.852507 259.868 0.708831 258.868C0.565155 257.868 0.758463 256.849 1.25924 255.967C2.91697 252.612 8.22171 248.653 18.4333 244.678L18.8643 245.737C8.91796 249.598 3.82873 253.345 2.28704 256.472C1.89951 257.15 1.74808 257.934 1.85582 258.705C1.96355 259.475 2.32454 260.19 2.88382 260.74C4.66053 262.285 6.85395 263.292 9.19977 263.64C18.7483 265.692 35.9058 263.64 53.4612 254.403C61.7498 250.005 68.1487 244.369 71.547 238.993C73.332 236.375 73.332 235.024 73.332 235.024C73.6353 235.338 74.1864 235.874 72.9561 238.977Z" fill="url(#paint0_linear)"/>
<path fill-rule="evenodd" clip-rule="evenodd" d="M37.1814 17.773L95.749 14.792L122.604 31.4728L145 84.7405L22.3613 158.11L37.1814 17.773Z" fill="url(#paint1_linear)"/>
<path fill-rule="evenodd" clip-rule="evenodd" d="M69.7222 16.0292L85.4872 0L95.7486 14.7912L69.7222 16.0292Z" fill="url(#paint2_linear)"/>
<path fill-rule="evenodd" clip-rule="evenodd" d="M132.683 55.1414L140.657 34.2579L122.654 31.5049L132.683 55.1414Z" fill="url(#paint3_linear)"/>
<path fill-rule="evenodd" clip-rule="evenodd" d="M77.1807 15.736L85.4859 0L95.7473 14.7912L77.1807 15.736Z" fill="url(#paint4_linear)"/>
<path fill-rule="evenodd" clip-rule="evenodd" d="M129.749 48.3974L140.657 34.2579L122.654 31.5049L129.749 48.3974Z" fill="url(#paint5_linear)"/>
<path fill-rule="evenodd" clip-rule="evenodd" d="M22.3613 158.109L83.6642 62.7977L78.0445 49.4889L64.0698 16.4043L37.1814 17.7726L22.3613 158.109Z" fill="url(#paint6_linear)"/>
<path fill-rule="evenodd" clip-rule="evenodd" d="M83.6631 62.7977L144.999 84.7401L134.705 60.2891L98.3009 62.0647L83.6631 62.7977Z" fill="url(#paint7_linear)"/>
<path fill-rule="evenodd" clip-rule="evenodd" d="M78.0442 49.4889L64.0695 16.4043L37.1812 17.7726L83.6639 62.7977L78.0442 49.4889Z" fill="url(#paint8_linear)"/>
<path fill-rule="evenodd" clip-rule="evenodd" d="M134.705 60.2891L98.3009 62.0647L83.6631 62.7977L144.999 84.7401L134.705 60.2891Z" fill="url(#paint9_linear)"/>
<path fill-rule="evenodd" clip-rule="evenodd" d="M122.653 31.5054L136.164 63.7266L83.6636 62.7981L60.356 16.6002L95.7485 14.792L122.653 31.5054Z" fill="#815E00"/>
<path fill-rule="evenodd" clip-rule="evenodd" d="M122.653 31.5047L134.805 60.2726L83.6637 62.7975L64.0361 16.3226L95.6988 14.7588L122.653 31.5047Z" fill="url(#paint10_radial)"/>
<path fill-rule="evenodd" clip-rule="evenodd" d="M98.3019 62.064L78.0444 49.4883L83.6641 62.7971L98.3019 62.064Z" fill="url(#paint11_linear)"/>
<path fill-rule="evenodd" clip-rule="evenodd" d="M107.568 43.25L118.658 50.1569L105.429 46.5568L107.568 43.25Z" fill="#B77700"/>
<path fill-rule="evenodd" clip-rule="evenodd" d="M91.3734 33.2002L80.2666 26.3096L89.2515 36.507L91.3734 33.2002Z" fill="#B77700"/>
<path fill-rule="evenodd" clip-rule="evenodd" d="M107.568 43.2495L118.658 50.1563L108.413 41.9463L107.568 43.2495Z" fill="#673900"/>
<path fill-rule="evenodd" clip-rule="evenodd" d="M91.3734 33.2002L80.2666 26.3096L92.2188 31.8807L91.3734 33.2002Z" fill="#673900"/>
<path fill-rule="evenodd" clip-rule="evenodd" d="M86.2837 30.3799L89.7318 32.5295L89.1018 33.5066L86.2837 30.3799Z" fill="#FFDD75"/>
<path fill-rule="evenodd" clip-rule="evenodd" d="M112.342 46.5715L108.878 44.4219L108.248 45.399L112.342 46.5715Z" fill="#FFDD75"/>
<defs>
<linearGradient id="paint0_linear" x1="37.3727" y1="157.996" x2="-16.6105" y2="265.751" gradientUnits="userSpaceOnUse">
<stop stop-color="#FCC226"/>
<stop offset="1" stop-color="#FA9603"/>
</linearGradient>
<linearGradient id="paint1_linear" x1="88.6871" y1="144.72" x2="69.7386" y2="53.5253" gradientUnits="userSpaceOnUse">
<stop stop-color="#EF7C00"/>
<stop offset="1" stop-color="#FFCF35"/>
</linearGradient>
<linearGradient id="paint2_linear" x1="88.0898" y1="8.51958" x2="77.8596" y2="22.1477" gradientUnits="userSpaceOnUse">
<stop stop-color="#511C00"/>
<stop offset="1" stop-color="#815E00"/>
</linearGradient>
<linearGradient id="paint3_linear" x1="125.886" y1="47.4526" x2="131.921" y2="32.9927" gradientUnits="userSpaceOnUse">
<stop stop-color="#815E00"/>
<stop offset="1" stop-color="#511C00"/>
</linearGradient>
<linearGradient id="paint4_linear" x1="79.6673" y1="15.6708" x2="86.3587" y2="10.4263" gradientUnits="userSpaceOnUse">
<stop stop-color="#F4A100"/>
<stop offset="1" stop-color="#FFDD75"/>
</linearGradient>
<linearGradient id="paint5_linear" x1="1569.19" y1="497.739" x2="1564.75" y2="372.037" gradientUnits="userSpaceOnUse">
<stop stop-color="#F4A100"/>
<stop offset="1" stop-color="#FFDD75"/>
</linearGradient>
<linearGradient id="paint6_linear" x1="3.99368" y1="91.7773" x2="66.7551" y2="82.1186" gradientUnits="userSpaceOnUse">
<stop stop-color="#FFCF35"/>
<stop offset="1" stop-color="#F4A100"/>
</linearGradient>
<linearGradient id="paint7_linear" x1="4964.79" y1="1809.76" x2="4845.22" y2="1018.76" gradientUnits="userSpaceOnUse">
<stop stop-color="#EF7C00"/>
<stop offset="1" stop-color="#FFCF35"/>
</linearGradient>
<linearGradient id="paint8_linear" x1="1321.04" y1="279.919" x2="2343.9" y2="1662.93" gradientUnits="userSpaceOnUse">
<stop stop-color="#FFCF35"/>
<stop offset="1" stop-color="#F4A100"/>
</linearGradient>
<linearGradient id="paint9_linear" x1="102.147" y1="79.1364" x2="135.797" y2="63.7918" gradientUnits="userSpaceOnUse">
<stop stop-color="#F4A100"/>
<stop offset="1" stop-color="#F3AD2D"/>
</linearGradient>
<radialGradient id="paint10_radial" cx="0" cy="0" r="1" gradientUnits="userSpaceOnUse" gradientTransform="translate(94.0908 20.4276) scale(59.297 58.2687)">
<stop stop-color="#FFF9D1"/>
<stop offset="1" stop-color="#FFDD75"/>
</radialGradient>
<linearGradient id="paint11_linear" x1="1119.68" y1="553.359" x2="1133.9" y2="521.052" gradientUnits="userSpaceOnUse">
<stop stop-color="#511C00"/>
<stop offset="1" stop-color="#815E00"/>
</linearGradient>
</defs>
</svg>
