<svg width="24" height="24" viewBox="0 0 24 24" fill="none" xmlns="http://www.w3.org/2000/svg">
<g clip-path="url(#clip0)">
<path d="M21.8906 2.5H2.10938C0.947719 2.5 0 3.44669 0 4.60938V18.6719C0 19.8306 0.9435 20.7812 2.10938 20.7812H21.8906C23.0494 20.7812 24 19.8377 24 18.6719V4.60938C24 3.45063 23.0565 2.5 21.8906 2.5ZM21.5993 3.90625L12.0447 13.4609L2.40745 3.90625H21.5993ZM1.40625 18.3807V4.89386L8.1787 11.6082L1.40625 18.3807ZM2.40061 19.375L9.17733 12.5983L11.5519 14.9524C11.8267 15.225 12.2703 15.2241 12.5441 14.9503L14.8594 12.635L21.5994 19.375H2.40061ZM22.5938 18.3806L15.8537 11.6406L22.5938 4.90056V18.3806Z" fill="white" stroke="white" stroke-width="0.5"/>
</g>
<defs>
<clipPath id="clip0">
<rect width="24" height="24" fill="white"/>
</clipPath>
</defs>
</svg>
