<svg width="24" height="24" viewBox="0 0 24 24" fill="none" xmlns="http://www.w3.org/2000/svg">
<path d="M22.7588 0.112537L0.202965 13.267C0.0732815 13.345 -0.00393681 13.4872 0.00121957 13.6385C0.00637594 13.7897 0.093097 13.9263 0.227792 13.9953L6.6209 16.9663L8.27607 24.0008L13.2416 20.2767L13.2664 20.2353L19.0347 23.5374C19.1502 23.6001 19.2885 23.6044 19.4077 23.549C19.5268 23.4935 19.6126 23.3848 19.6388 23.256L23.2347 4.80081L23.2471 4.74288L23.9795 0.98564C24.0408 0.668767 23.9118 0.345251 23.6493 0.157494C23.3868 -0.0302639 23.0389 -0.0478264 22.7588 0.112537Z" fill="#FFCF35"/>
<path d="M21.3767 4.37808C21.375 4.39783 21.3708 4.41729 21.3643 4.43601C21.3524 4.47714 21.3342 4.51621 21.3105 4.55187L11.1726 19.0346L8.27602 24.0001L6.62085 16.9657L20.6898 4.01394C20.8192 3.89848 21.0068 3.87576 21.16 3.95698C21.3132 4.0382 21.3997 4.2062 21.3767 4.37808Z" fill="url(#paint0_linear)"/>
<path d="M23.9795 0.98564L23.2471 4.74288L23.2347 4.80081L19.6388 23.256C19.6126 23.3848 19.5268 23.4935 19.4077 23.549C19.2885 23.6044 19.1502 23.6001 19.0347 23.5374L13.2664 20.2353L11.1726 19.0353L21.3106 4.55254C21.3343 4.51688 21.3524 4.47781 21.3643 4.43668C21.3709 4.41795 21.375 4.39849 21.3768 4.37874C21.3997 4.20686 21.3132 4.03887 21.16 3.95765C21.0068 3.87643 20.8192 3.89915 20.6899 4.01461L6.6209 16.9663L0.227792 13.9953C0.093097 13.9263 0.00637594 13.7897 0.00121957 13.6385C-0.00393681 13.4872 0.0732815 13.345 0.202965 13.267L22.7588 0.112537C23.0389 -0.0478264 23.3868 -0.0302639 23.6493 0.157494C23.9118 0.345251 24.0408 0.668767 23.9795 0.98564Z" fill="#FFCF35"/>
<path d="M23.9795 0.98564L23.2471 4.74288L23.2347 4.80081L19.6388 23.256C19.6126 23.3848 19.5268 23.4935 19.4077 23.549C19.2885 23.6044 19.1502 23.6001 19.0347 23.5374L13.2664 20.2353L11.1726 19.0353L21.3106 4.55254C21.3343 4.51688 21.3524 4.47781 21.3643 4.43668C21.3709 4.41795 21.375 4.39849 21.3768 4.37874C21.3997 4.20686 21.3132 4.03887 21.16 3.95765C21.0068 3.87643 20.8192 3.89915 20.6899 4.01461L6.6209 16.9663L0.227792 13.9953C0.093097 13.9263 0.00637594 13.7897 0.00121957 13.6385C-0.00393681 13.4872 0.0732815 13.345 0.202965 13.267L22.7588 0.112537C23.0389 -0.0478264 23.3868 -0.0302639 23.6493 0.157494C23.9118 0.345251 24.0408 0.668767 23.9795 0.98564Z" fill="url(#paint1_linear)"/>
<path d="M13.2662 20.2347L13.2414 20.276L8.27588 24.0002L11.1724 19.0347L13.2662 20.2347Z" fill="url(#paint2_linear)"/>
<defs>
<linearGradient id="paint0_linear" x1="11.2502" y1="0.656395" x2="11.0392" y2="25.3595" gradientUnits="userSpaceOnUse">
<stop stop-color="#F1A002"/>
<stop offset="1" stop-color="#CD7B09"/>
</linearGradient>
<linearGradient id="paint1_linear" x1="18.633" y1="21.118" x2="8.5053" y2="5.13823" gradientUnits="userSpaceOnUse">
<stop stop-color="#FFCF35"/>
<stop offset="1" stop-color="#F4A100"/>
</linearGradient>
<linearGradient id="paint2_linear" x1="264.879" y1="207.029" x2="271.52" y2="197.067" gradientUnits="userSpaceOnUse">
<stop stop-color="#EF8600"/>
<stop offset="1" stop-color="#CA7202"/>
</linearGradient>
</defs>
</svg>
