<svg width="36" height="36" viewBox="0 0 36 36" fill="none" xmlns="http://www.w3.org/2000/svg">
<path fill-rule="evenodd" clip-rule="evenodd" d="M29.9428 6.02922C26.7853 2.86804 22.5861 1.12637 18.1125 1.12451C8.89432 1.12451 1.39204 8.62659 1.38833 17.8473C1.38709 20.7948 2.1571 23.6722 3.62068 26.2084L1.24805 34.8745L10.1138 32.5488C12.5567 33.8814 15.3069 34.5836 18.1057 34.5845H18.1127C27.3299 34.5845 34.833 27.0818 34.8365 17.8607C34.8384 13.3918 33.1004 9.19019 29.9428 6.02922ZM18.1125 31.7601H18.1068C15.6126 31.7591 13.1664 31.0888 11.0319 29.8225L10.5246 29.5211L5.26348 30.9013L6.66774 25.7719L6.33712 25.246C4.94563 23.0328 4.21085 20.4747 4.21209 17.8483C4.21497 10.1843 10.4508 3.9491 18.1181 3.9491C21.8309 3.95033 25.3211 5.39806 27.9454 8.0255C30.5698 10.653 32.0142 14.1454 32.013 17.8596C32.0097 25.5243 25.7743 31.7601 18.1125 31.7601ZM25.7372 21.3494C25.3194 21.1401 23.2649 20.1295 22.8817 19.9898C22.499 19.8504 22.2201 19.7809 21.9418 20.1991C21.663 20.6173 20.8623 21.5587 20.6185 21.8374C20.3746 22.1163 20.1311 22.1513 19.7131 21.942C19.2951 21.7329 17.9488 21.2915 16.3525 19.8679C15.1104 18.7598 14.2718 17.3914 14.0279 16.9732C13.7844 16.5547 14.0258 16.3503 14.2112 16.1204C14.6636 15.5587 15.1166 14.9698 15.2558 14.691C15.3953 14.4121 15.3254 14.168 15.2208 13.9589C15.1166 13.7499 14.2809 11.693 13.9327 10.8561C13.5932 10.0416 13.249 10.1516 12.9924 10.1388C12.7489 10.1266 12.4702 10.1242 12.1915 10.1242C11.913 10.1242 11.4602 10.2286 11.077 10.6472C10.6941 11.0656 9.61468 12.0764 9.61468 14.1332C9.61468 16.1901 11.1121 18.1771 11.3209 18.456C11.5298 18.7349 14.2677 22.9557 18.4594 24.7656C19.4564 25.1965 20.2347 25.4534 20.8417 25.646C21.8429 25.964 22.7536 25.9191 23.4737 25.8116C24.2767 25.6915 25.9459 24.8006 26.2944 23.8246C26.6425 22.8484 26.6425 22.0119 26.5379 21.8374C26.4337 21.6631 26.1549 21.5587 25.7372 21.3494Z" fill="white"/>
</svg>
