<svg width="36" height="36" viewBox="0 0 36 36" fill="none" xmlns="http://www.w3.org/2000/svg">
<g clip-path="url(#clip0)">
<path d="M34.7282 20.8588C35.8022 11.8183 34.2122 6.11082 31.3442 3.52932L31.3457 3.52782C26.7167 -0.880676 11.0837 -1.53318 5.54572 3.72582C3.05872 6.29833 2.18272 10.0738 2.08672 14.7478C1.99072 19.4233 1.87672 28.1818 10.0382 30.5578H10.0457L10.0382 34.1863C10.0382 34.1863 9.98272 35.6563 10.9217 35.9518C11.9957 36.2998 12.4817 35.6173 15.8222 31.6273C21.4082 32.1118 25.6982 31.0018 26.1857 30.8398C27.3137 30.4618 33.6962 29.6173 34.7282 20.8588ZM16.3727 29.0743C16.3727 29.0743 12.8372 33.4828 11.7377 34.6273C11.3777 34.9993 10.9832 34.9648 10.9892 34.2268C10.9892 33.7423 11.0162 28.2028 11.0162 28.2028C4.09672 26.2198 4.50472 18.7618 4.57972 14.8603C4.65472 10.9573 5.36872 7.76083 7.47472 5.60833C12.3332 1.05282 26.0387 2.07132 29.5307 5.35332C33.7997 9.13783 32.2802 19.8298 32.2892 20.1943C31.4117 27.5053 26.2397 27.9688 25.2887 28.2853C24.8822 28.4203 21.1097 29.3908 16.3727 29.0743Z" fill="white"/>
<path d="M18.3364 6.43359C17.7589 6.43359 17.7589 7.3336 18.3364 7.3411C22.8169 7.3756 26.5069 10.4986 26.5474 16.2271C26.5474 16.8316 27.4324 16.8241 27.4249 16.2196H27.4234C27.3754 10.0471 23.3464 6.46809 18.3364 6.43359Z" fill="white"/>
<path d="M24.2235 15.3066C24.21 15.9036 25.0935 15.9321 25.101 15.3276C25.1745 11.9241 23.076 9.12064 19.1325 8.82514C18.555 8.78314 18.495 9.69064 19.071 9.73264C22.491 9.99214 24.2925 12.3261 24.2235 15.3066Z" fill="white"/>
<path d="M23.2803 19.1636C22.5393 18.7346 21.7848 19.0016 21.4728 19.4231L20.8203 20.2676C20.4888 20.6966 19.8693 20.6396 19.8693 20.6396C15.3483 19.4441 14.1394 14.7131 14.1394 14.7131C14.1394 14.7131 14.0839 14.0726 14.4979 13.7291L15.3138 13.0541C15.7218 12.7301 15.9798 11.9501 15.5643 11.1836C14.4543 9.1781 13.7089 8.4866 13.3294 7.9556C12.9304 7.4561 12.3304 7.3436 11.7064 7.6811H11.6929C10.3954 8.4401 8.97486 9.8606 9.42936 11.3231C10.2049 12.8651 11.6299 17.7806 16.1718 21.4946C18.3063 23.2511 21.6843 25.0511 23.1183 25.4666L23.1318 25.4876C24.5448 25.9586 25.9188 24.4826 26.6523 23.1461V23.1356C26.9778 22.4891 26.8698 21.8771 26.3943 21.4766C25.5513 20.6546 24.2793 19.7471 23.2803 19.1636Z" fill="white"/>
<path d="M19.7569 12.159C21.1985 12.243 21.8975 12.996 21.9725 14.5425C21.9995 15.147 22.877 15.105 22.85 14.5005C22.754 12.4815 21.701 11.3564 19.8049 11.2514C19.2274 11.2169 19.1734 12.1245 19.7569 12.159Z" fill="white"/>
</g>
<defs>
<clipPath id="clip0">
<rect width="36" height="36" fill="white"/>
</clipPath>
</defs>
</svg>
