<svg width="40" height="40" viewBox="0 0 40 40" fill="none" xmlns="http://www.w3.org/2000/svg">
<path d="M20.0027 18.751C19.9657 18.751 19.9281 18.7504 19.8909 18.7497L19.7612 18.7474C19.7035 18.746 19.6447 18.7438 19.5865 18.741C19.5213 18.738 19.457 18.7343 19.3928 18.73C17.4512 18.6016 15.5996 17.8634 14.1022 16.6207C12.6049 15.378 11.5381 13.6942 11.0542 11.8094L11.0077 11.6294H10.995C10.94 11.3957 10.8941 11.1592 10.8577 10.9224H10.8642L10.8282 10.6509C10.7849 10.3228 10.7589 9.99276 10.7502 9.66198L10.7495 9.62237C10.7488 9.57885 10.7488 9.53933 10.7488 9.49997C10.7488 9.16699 10.7666 8.83426 10.8019 8.50317L10.8285 8.33856C11.0768 6.32074 11.9881 4.44249 13.4193 2.99856C13.5553 2.85989 13.7001 2.72231 13.8627 2.57754L13.882 2.56051C13.9332 2.51504 13.9797 2.47559 14.0256 2.43669L14.0349 2.42864C14.0395 2.42441 14.0446 2.42028 14.0493 2.41653L14.0805 2.39051C14.1141 2.36231 14.1477 2.33418 14.1821 2.30651C14.2865 2.22245 14.3787 2.15081 14.4642 2.08731C14.4932 2.06543 14.5199 2.0452 14.5469 2.02571L14.551 2.02368L14.569 2.01017C14.6053 1.98297 14.641 1.95704 14.678 1.93118L14.8292 1.82718L14.9226 1.76499C14.967 1.73539 15.0133 1.70579 15.0595 1.67619C16.5376 0.738044 18.2522 0.23991 20.0029 0.23999H20.0621C21.5749 0.250208 23.062 0.631531 24.3931 1.3505C25.7242 2.06947 26.8584 3.10412 27.6964 4.36366L27.7536 4.49217H27.7805C27.8371 4.57983 27.8937 4.67108 27.9494 4.76452L28.0328 4.90796C28.0672 4.96876 28.1015 5.02944 28.1346 5.09022C28.1859 5.18327 28.2361 5.28006 28.2887 5.38741C28.3143 5.43804 28.3369 5.48553 28.3596 5.53373C28.3855 5.58694 28.4083 5.63709 28.4313 5.68733L28.4387 5.70405C28.4928 5.8235 28.5459 5.94897 28.5971 6.07804L28.6056 6.09991C28.6282 6.15819 28.6508 6.21647 28.6728 6.27475C28.7024 6.35452 28.732 6.4364 28.7592 6.51897C28.788 6.60397 28.8149 6.68733 28.841 6.77147L28.8517 6.80587C29.0025 7.30686 29.1113 7.81954 29.177 8.33861L29.1969 8.49649C29.2328 8.8298 29.2508 9.16478 29.2508 9.50001C29.2508 9.76869 29.2392 10.0384 29.2161 10.3018C29.2146 10.3223 29.2137 10.3384 29.2115 10.3545L29.2103 10.364C29.2004 10.4666 29.1895 10.5602 29.1773 10.6501L29.1402 10.9225H29.1419C29.1055 11.1593 29.0596 11.3957 29.0046 11.6295H28.9978L28.9514 11.8094C28.4801 13.6339 27.4632 15.2712 26.0366 16.5024C24.61 17.7337 22.8417 18.5002 20.9678 18.6997C20.9075 18.7063 20.8473 18.712 20.787 18.717C20.7227 18.7221 20.6584 18.7272 20.5934 18.7316C20.551 18.7345 20.5087 18.7367 20.4656 18.7388L20.3674 18.7432L20.2366 18.7475L20.1175 18.7497C20.0789 18.751 20.0446 18.7511 20.0101 18.7511L20.0027 18.751ZM23.4228 14.4275C22.9045 15.55 22.2136 16.5843 21.3752 17.4931L20.8817 18.0285L21.5969 17.8914C23.0702 17.6083 24.4431 16.9429 25.5781 15.9619L25.7797 15.7875L25.5852 15.6052C25.0368 15.0913 24.4191 14.6569 23.75 14.3145L23.5275 14.2006L23.4228 14.4275ZM16.2554 14.3146C15.5864 14.6569 14.9686 15.0914 14.4202 15.6053L14.2258 15.7875L14.4274 15.9619C15.5624 16.9429 16.9354 17.6083 18.4087 17.8914L19.1238 18.0285L18.6303 17.4931C17.792 16.5843 17.1011 15.5499 16.5827 14.4275L16.4779 14.2007L16.2554 14.3146ZM19.3903 13.4403C18.7254 13.4929 18.0697 13.6285 17.4385 13.844L17.1859 13.9303L17.2984 14.1723C17.8024 15.2563 18.4759 16.2532 19.2935 17.1254L19.7199 17.5806L19.6446 13.42L19.3903 13.4403ZM20.3453 17.5442L20.768 17.1112C21.6084 16.2508 22.303 15.2591 22.8244 14.1753L22.9421 13.9307L22.685 13.8438C22.0341 13.6234 21.3576 13.4877 20.6721 13.44L20.4202 13.4226L20.3453 17.5442ZM11.4845 10.1066C11.6246 11.9551 12.3645 13.7073 13.5917 15.0968L13.755 15.2809L13.935 15.1131C14.5679 14.5226 15.2825 14.0261 16.0567 13.6389L16.2447 13.5448L16.1764 13.3461C15.8137 12.2921 15.6041 11.1916 15.5542 10.0781L15.5439 9.84887H11.4655L11.4845 10.1066ZM24.5109 10.0761C24.4512 11.191 24.2319 12.2916 23.8596 13.3442L23.7889 13.5441L23.9785 13.6389C24.7527 14.0261 25.4673 14.5226 26.1002 15.1131L26.2802 15.2809L26.4435 15.0968C27.6707 13.7073 28.4106 11.9551 28.5507 10.1066L28.5697 9.84891H24.523L24.5109 10.0761ZM16.232 10.1029C16.2906 11.105 16.4844 12.0946 16.8082 13.0447L16.8857 13.272L17.1129 13.1944C17.86 12.9394 18.6375 12.784 19.4252 12.732L19.6493 12.7172V9.84893H16.2173L16.232 10.1029ZM20.5804 12.732C21.3681 12.784 22.1454 12.9395 22.8925 13.1944L23.113 13.2696L23.1948 13.0515C23.5497 12.1058 23.7741 11.1161 23.862 10.1097L23.8848 9.84889H20.4156V12.4925L20.5942 12.3138L20.5804 12.732ZM26.1297 3.878C25.4973 4.46896 24.7827 4.96542 24.0083 5.35199L23.8201 5.44597L23.8885 5.64488C24.2513 6.69882 24.4608 7.79938 24.5108 8.91288L24.5211 9.14209H28.5686L28.5508 8.88545C28.4191 7.04062 27.6901 5.28888 26.4741 3.8953L26.3108 3.70897L26.1297 3.878ZM22.8925 5.82628C22.1454 6.0812 21.3681 6.23667 20.5804 6.28868L20.3563 6.30345V9.14204H23.8214L23.803 8.88485C23.7316 7.89169 23.5276 6.91254 23.1964 5.97353L23.1173 5.74946L22.8925 5.82628ZM16.8082 5.94628C16.4844 6.89641 16.2906 7.88598 16.232 8.88807L16.2173 9.14205H19.6493V6.30612L19.4279 6.28885C18.6389 6.22729 17.8614 6.0621 17.1156 5.79753L16.8865 5.71628L16.8082 5.94628ZM13.5611 3.89526C12.3452 5.28888 11.6162 7.0406 11.4844 8.88541L11.4666 9.14205H15.5142L15.5245 8.91284C15.5744 7.79935 15.784 6.69879 16.1467 5.64484L16.2151 5.44593L16.0269 5.35199C15.2524 4.96541 14.5379 4.46895 13.9055 3.87801L13.7244 3.70886L13.5611 3.89526ZM20.3563 5.60205L20.6163 5.58034C21.3032 5.52293 21.9798 5.37692 22.6292 5.14594L22.8777 5.05758L22.7664 4.81852C22.2637 3.73863 21.5898 2.74713 20.7706 1.88242L20.3563 1.44479L20.3563 5.60205ZM19.2336 1.86612C18.4131 2.74736 17.7395 3.7547 17.2386 4.84964L17.1278 5.09159L17.3798 5.1769C18.0307 5.39726 18.7072 5.53296 19.3927 5.58065L19.6493 5.59838V1.41933L19.2336 1.86612ZM18.4087 1.09956C16.9354 1.38268 15.5625 2.04809 14.4274 3.02909L14.2258 3.20349L14.4203 3.38575C14.9685 3.89997 15.5864 4.33452 16.2557 4.67661L16.4779 4.79013L16.5827 4.56357C17.1013 3.44119 17.7922 2.40683 18.6304 1.49797L19.1238 0.962494L18.4087 1.09956ZM21.3752 1.49796C22.2135 2.40679 22.9043 3.44116 23.4228 4.56356L23.5276 4.79012L23.7499 4.67661C24.4191 4.33446 25.037 3.89994 25.5853 3.38581L25.7798 3.20346L25.5782 3.02906C24.4432 2.04806 23.0702 1.38265 21.597 1.09953L20.8818 0.962422L21.3752 1.49796Z" fill="black"/>
<path d="M17.3308 21.7036V23.326L16.891 22.679C16.8563 22.6275 16.8027 22.5918 16.7418 22.5798C16.6809 22.5679 16.6177 22.5805 16.5662 22.6151C16.5407 22.6324 16.5188 22.6544 16.5016 22.6799L16.0624 23.326V21.7036H15.594L15.5937 24.1175C15.5914 24.1693 15.6064 24.2204 15.6364 24.2628C15.6663 24.3051 15.7095 24.3363 15.7591 24.3514C15.7807 24.3578 15.8032 24.3611 15.8257 24.3611C15.8645 24.3612 15.9027 24.3516 15.9368 24.3332C15.971 24.3148 16 24.2882 16.0212 24.2557L16.6948 23.2253L17.3716 24.2378C17.3928 24.27 17.4217 24.2965 17.4556 24.3149C17.4895 24.3333 17.5275 24.343 17.5661 24.3432L17.5774 24.3428L17.5945 24.3454C17.6056 24.3469 17.6168 24.3477 17.6281 24.3478L17.6402 24.3474L17.6534 24.3446C17.6979 24.3266 17.7359 24.2953 17.762 24.255C17.7882 24.2147 17.8013 24.1673 17.7995 24.1192L17.7993 21.7036L17.3308 21.7036Z" fill="black"/>
<path d="M20.8048 21.7036V23.326L20.3649 22.679C20.3303 22.6275 20.2766 22.5918 20.2156 22.5798C20.1547 22.5678 20.0915 22.5806 20.0399 22.6152C20.0145 22.6324 19.9926 22.6543 19.9755 22.6798L19.5363 23.3265V21.7036H19.0678L19.0676 24.1174C19.0652 24.1685 19.0797 24.2189 19.1088 24.2608C19.1379 24.3028 19.18 24.3341 19.2286 24.3498C19.2772 24.3655 19.3296 24.3648 19.3778 24.3478C19.4259 24.3308 19.4672 24.2985 19.4951 24.2557L20.1687 23.2252L20.8455 24.2378C20.8667 24.27 20.8955 24.2965 20.9295 24.3149C20.9634 24.3333 21.0014 24.343 21.04 24.3432L21.0513 24.3429L21.0681 24.3453C21.0793 24.347 21.0907 24.3478 21.102 24.3478L21.1141 24.3475L21.1273 24.3446C21.1719 24.3266 21.2098 24.2953 21.2359 24.255C21.2621 24.2146 21.2752 24.1672 21.2735 24.1192L21.2732 21.7036L20.8048 21.7036Z" fill="black"/>
<path d="M24.7471 21.7036H24.2787V23.326L23.8388 22.679C23.8042 22.6275 23.7505 22.5918 23.6896 22.5798C23.6286 22.5678 23.5654 22.5806 23.5138 22.6152C23.4884 22.6324 23.4665 22.6543 23.4495 22.6799L23.0103 23.326V21.7036H22.5418L22.5416 24.1175C22.5392 24.1685 22.5537 24.2189 22.5828 24.2609C22.6119 24.3029 22.654 24.3341 22.7026 24.3498C22.7512 24.3655 22.8036 24.3648 22.8517 24.3478C22.8999 24.3308 22.9411 24.2985 22.9691 24.2557L23.6426 23.2253L24.3195 24.2378C24.3407 24.27 24.3695 24.2965 24.4035 24.3149C24.4374 24.3333 24.4753 24.343 24.5139 24.3431L24.5253 24.3428L24.5421 24.3452C24.5533 24.3469 24.5646 24.3478 24.5759 24.3477L24.588 24.3474L24.6012 24.3446C24.6458 24.3266 24.6837 24.2953 24.7099 24.255C24.736 24.2146 24.7491 24.1672 24.7474 24.1192L24.7471 21.7036Z" fill="black"/>
<path d="M26.4439 23.9147H26.0554V24.3031H26.4439V23.9147Z" fill="black"/>
<path d="M9.93654 39.7601C9.88199 39.76 9.82803 39.7488 9.778 39.7271C9.72797 39.7054 9.68293 39.6736 9.64566 39.6338C9.6084 39.5939 9.57971 39.5469 9.56137 39.4955C9.54303 39.4441 9.53543 39.3896 9.53904 39.3351C9.54888 39.2315 9.59766 39.1355 9.67552 39.0665C9.75339 38.9975 9.85455 38.9606 9.95857 38.9633H15.7718V33.6001H1.59017C1.25124 33.5997 0.926291 33.4649 0.686626 33.2252C0.446961 32.9856 0.312149 32.6606 0.311768 32.3217V4.30403C0.312138 3.9651 0.446945 3.64014 0.686612 3.40048C0.926278 3.16081 1.25123 3.02601 1.59017 3.02563H9.11897C9.22463 3.02563 9.32596 3.06761 9.40068 3.14232C9.47539 3.21704 9.51737 3.31837 9.51737 3.42403C9.51737 3.5297 9.47539 3.63103 9.40068 3.70575C9.32596 3.78046 9.22463 3.82243 9.11897 3.82243H1.59017C1.46248 3.82257 1.34007 3.87336 1.24978 3.96365C1.15949 4.05393 1.10871 4.17635 1.10857 4.30403V27.7486H39.035V4.30403C39.0348 4.17635 38.9841 4.05393 38.8938 3.96364C38.8035 3.87335 38.6811 3.82257 38.5534 3.82243H31.019C30.9133 3.82243 30.812 3.78046 30.7372 3.70575C30.6625 3.63103 30.6206 3.5297 30.6206 3.42403C30.6206 3.31837 30.6625 3.21704 30.7372 3.14232C30.812 3.06761 30.9133 3.02563 31.019 3.02563H38.5534C38.8923 3.02601 39.2173 3.16082 39.4569 3.40048C39.6966 3.64015 39.8314 3.9651 39.8318 4.30403V32.3217C39.8314 32.6606 39.6966 32.9856 39.4569 33.2252C39.2173 33.4649 38.8923 33.5997 38.5534 33.6H24.3726V38.9633H30.207C30.2617 38.9633 30.3157 38.9746 30.3658 38.9964C30.4159 39.0182 30.461 39.0501 30.4983 39.09C30.5356 39.13 30.5642 39.1772 30.5825 39.2287C30.6007 39.2803 30.6082 39.335 30.6044 39.3895C30.5942 39.4928 30.5452 39.5884 30.4674 39.6572C30.3896 39.7259 30.2886 39.7626 30.1848 39.76L9.93654 39.7601ZM16.5678 38.9633H23.5758V33.6H16.5678V38.9633ZM1.10858 32.3216C1.10872 32.4493 1.15951 32.5718 1.2498 32.662C1.34008 32.7523 1.4625 32.8031 1.59018 32.8033H38.5534C38.6811 32.8031 38.8035 32.7523 38.8938 32.662C38.9841 32.5718 39.0349 32.4493 39.035 32.3216V28.5485H1.10857L1.10858 32.3216Z" fill="black"/>
<path d="M34.3778 9.68096H31.8165V9.19969H34.3778V8.67273L35.2989 9.44025L34.3778 10.2078V9.68096Z" fill="black"/>
<path d="M4.70087 9.43972L5.62199 8.67212V9.199H8.18335V9.68028H5.62199V10.2072L4.70087 9.43972Z" fill="black"/>
</svg>
