<svg width="40" height="40" viewBox="0 0 40 40" fill="none" xmlns="http://www.w3.org/2000/svg">
<path d="M10.9811 2.98755C10.8888 2.98754 10.7986 3.0149 10.7218 3.06618C10.6451 3.11745 10.5853 3.19033 10.5499 3.2756C10.5146 3.36087 10.5054 3.4547 10.5234 3.54523C10.5414 3.63576 10.5858 3.71892 10.6511 3.78419C10.7163 3.84946 10.7995 3.89392 10.89 3.91193C10.9805 3.92995 11.0744 3.92071 11.1596 3.8854C11.2449 3.85008 11.3178 3.79027 11.3691 3.71353C11.4204 3.63679 11.4478 3.54657 11.4478 3.45427C11.4476 3.33054 11.3984 3.21193 11.3109 3.12443C11.2235 3.03694 11.1048 2.98771 10.9811 2.98755Z" fill="black"/>
<path d="M13.3278 2.98755C13.2355 2.98754 13.1453 3.0149 13.0685 3.06618C12.9918 3.11745 12.932 3.19033 12.8966 3.2756C12.8613 3.36087 12.852 3.4547 12.87 3.54523C12.888 3.63576 12.9325 3.71892 12.9977 3.78419C13.063 3.84946 13.1462 3.89392 13.2367 3.91193C13.3272 3.92995 13.421 3.92071 13.5063 3.8854C13.5916 3.85008 13.6645 3.79027 13.7158 3.71353C13.7671 3.63679 13.7944 3.54657 13.7944 3.45427C13.7943 3.33054 13.7451 3.21191 13.6576 3.12442C13.5701 3.03692 13.4515 2.9877 13.3278 2.98755Z" fill="black"/>
<path d="M15.6745 2.98755C15.5822 2.98756 15.4919 3.01493 15.4152 3.06622C15.3385 3.1175 15.2787 3.19038 15.2433 3.27566C15.208 3.36093 15.1988 3.45476 15.2168 3.54528C15.2348 3.63581 15.2792 3.71896 15.3445 3.78422C15.4098 3.84948 15.4929 3.89393 15.5835 3.91194C15.674 3.92995 15.7678 3.92071 15.8531 3.88539C15.9384 3.85007 16.0112 3.79026 16.0625 3.71353C16.1138 3.63679 16.1412 3.54656 16.1412 3.45427C16.1411 3.33053 16.0919 3.21189 16.0044 3.12439C15.9169 3.03689 15.7982 2.98768 15.6745 2.98755Z" fill="black"/>
<path d="M28.4493 15.6311H26.8877L26.8403 15.4985C26.7829 15.3375 26.7174 15.1795 26.6441 15.0251L26.5836 14.8977L27.6884 13.7929C27.7221 13.7592 27.7489 13.7192 27.7671 13.6751C27.7853 13.6311 27.7947 13.5839 27.7947 13.5362C27.7947 13.4885 27.7853 13.4413 27.7671 13.3973C27.7488 13.3532 27.722 13.3132 27.6883 13.2795L26.0942 11.6855C26.0605 11.6518 26.0205 11.6251 25.9765 11.6068C25.9324 11.5886 25.8852 11.5792 25.8375 11.5792C25.7899 11.5792 25.7426 11.5886 25.6986 11.6069C25.6546 11.6252 25.6146 11.6519 25.5809 11.6857L24.4764 12.7894L24.3491 12.7292C24.1947 12.6562 24.0368 12.591 23.8759 12.5337L23.7428 12.4864V10.9246C23.7427 10.8282 23.7044 10.7359 23.6363 10.6678C23.5682 10.5997 23.4758 10.5614 23.3795 10.5613H21.1261C21.0298 10.5614 20.9375 10.5997 20.8694 10.6678C20.8013 10.7359 20.7629 10.8283 20.7628 10.9246V12.4863L20.63 12.5337C20.4691 12.5911 20.3112 12.6566 20.1568 12.7298L20.0294 12.7904L18.9246 11.6856C18.8909 11.6519 18.8509 11.6251 18.8068 11.6069C18.7628 11.5886 18.7156 11.5792 18.6679 11.5793C18.6202 11.5793 18.573 11.5887 18.529 11.6069C18.485 11.6252 18.4449 11.6519 18.4113 11.6857L16.8173 13.2797C16.7835 13.3134 16.7568 13.3534 16.7386 13.3975C16.7203 13.4415 16.7109 13.4888 16.7109 13.5364C16.711 13.5841 16.7204 13.6313 16.7386 13.6754C16.7569 13.7194 16.7837 13.7594 16.8174 13.7931L17.9213 14.8977L17.8608 15.0251C17.7876 15.1794 17.7223 15.3374 17.6649 15.4982L17.6175 15.6311H16.0563C15.9599 15.6312 15.8676 15.6696 15.7995 15.7377C15.7314 15.8058 15.6931 15.8982 15.693 15.9945V18.2477C15.6931 18.344 15.7314 18.4364 15.7995 18.5045C15.8676 18.5726 15.9599 18.6109 16.0563 18.611H17.618L17.6653 18.7438C17.7226 18.9043 17.7885 19.0635 17.8613 19.2171L17.9219 19.3445L16.8173 20.4493C16.7836 20.483 16.7568 20.523 16.7386 20.567C16.7203 20.6111 16.7109 20.6583 16.7109 20.706C16.711 20.7536 16.7204 20.8008 16.7386 20.8449C16.7569 20.8889 16.7836 20.9289 16.8174 20.9626L18.4114 22.5566C18.4451 22.5903 18.4851 22.6171 18.5292 22.6353C18.5732 22.6536 18.6204 22.6629 18.6681 22.6629C18.7158 22.6629 18.763 22.6535 18.807 22.6352C18.8511 22.617 18.8911 22.5902 18.9248 22.5564L20.0294 21.4525L20.1568 21.5131C20.3111 21.5862 20.469 21.6516 20.6298 21.7089L20.7628 21.7561V23.3176C20.7629 23.4139 20.8012 23.5063 20.8693 23.5744C20.9374 23.6425 21.0298 23.6808 21.1261 23.6809H23.3794C23.4757 23.6808 23.5681 23.6425 23.6362 23.5744C23.7043 23.5063 23.7427 23.4139 23.7428 23.3176V21.7559L23.8756 21.7086C24.0365 21.6511 24.1944 21.5857 24.3487 21.5124L24.476 21.4519L25.581 22.5567C25.6147 22.5904 25.6547 22.6171 25.6987 22.6354C25.7428 22.6536 25.79 22.663 25.8377 22.663C25.8853 22.663 25.9325 22.6536 25.9766 22.6353C26.0206 22.6171 26.0606 22.5903 26.0943 22.5566L27.6883 20.9625C27.722 20.9288 27.7488 20.8888 27.767 20.8448C27.7853 20.8007 27.7946 20.7535 27.7946 20.7059C27.7946 20.6582 27.7852 20.611 27.767 20.567C27.7487 20.5229 27.722 20.4829 27.6882 20.4492L26.5835 19.3445L26.6441 19.2171C26.7174 19.0627 26.7828 18.9047 26.8403 18.7438L26.8877 18.6111H28.4493C28.5456 18.611 28.638 18.5727 28.7061 18.5045C28.7742 18.4364 28.8125 18.3441 28.8126 18.2477V15.9945C28.8125 15.8982 28.7742 15.8058 28.7061 15.7377C28.638 15.6696 28.5457 15.6312 28.4493 15.6311ZM26.2601 18.1571C26.1637 18.5312 26.0152 18.8899 25.819 19.2228C25.778 19.2923 25.7612 19.3735 25.7714 19.4536C25.7816 19.5337 25.8181 19.6081 25.8753 19.6652L26.918 20.7084L25.8371 21.7821L24.7951 20.7396C24.7374 20.6836 24.6631 20.6478 24.5833 20.6378C24.5035 20.6277 24.4226 20.6439 24.3528 20.6839C24.02 20.8799 23.6614 21.0284 23.2875 21.1249C23.2095 21.145 23.1404 21.1905 23.0911 21.2542C23.0417 21.3178 23.015 21.3961 23.015 21.4766V22.9542H21.4895V21.4799C21.4895 21.3994 21.4627 21.3212 21.4134 21.2576C21.3641 21.1939 21.295 21.1485 21.2171 21.1284C20.8429 21.0319 20.4842 20.8834 20.1513 20.6873C20.0815 20.6474 20.0006 20.6313 19.9209 20.6415C19.8412 20.6516 19.7669 20.6875 19.7094 20.7437L18.6665 21.7859L17.5875 20.7068L18.63 19.6641C18.6871 19.607 18.7236 19.5326 18.7338 19.4526C18.744 19.3725 18.7273 19.2914 18.6863 19.2219C18.49 18.8891 18.3414 18.5305 18.2447 18.1564C18.2247 18.0785 18.1793 18.0094 18.1157 17.9601C18.0521 17.9108 17.9739 17.8841 17.8934 17.8841H16.4196V16.3578H17.894C17.9745 16.3578 18.0528 16.331 18.1164 16.2817C18.18 16.2324 18.2254 16.1633 18.2455 16.0853C18.342 15.7112 18.4905 15.3525 18.6866 15.0196C18.7276 14.9501 18.7444 14.869 18.7342 14.789C18.724 14.709 18.6874 14.6346 18.6303 14.5777L17.5881 13.5348L18.6671 12.4558L19.7099 13.4984C19.7675 13.5545 19.8418 13.5903 19.9216 13.6004C20.0013 13.6106 20.0822 13.5945 20.1521 13.5546C20.4849 13.3584 20.8435 13.2098 21.2175 13.1131C21.2955 13.093 21.3645 13.0476 21.4138 12.984C21.4631 12.9204 21.4898 12.8422 21.4898 12.7618V11.2879H23.0164V12.7623C23.0164 12.8428 23.0431 12.921 23.0924 12.9847C23.1418 13.0483 23.2108 13.0937 23.2888 13.1138C23.6629 13.2103 24.0216 13.3587 24.3545 13.5548C24.4243 13.5948 24.5053 13.611 24.5851 13.6008C24.6649 13.5907 24.7392 13.5548 24.7968 13.4986L25.8396 12.4564L26.9188 13.5354L25.8764 14.578C25.8193 14.6351 25.7828 14.7096 25.7727 14.7897C25.7625 14.8698 25.7793 14.951 25.8203 15.0205C26.0162 15.3533 26.1647 15.7118 26.2613 16.0856C26.2814 16.1636 26.3268 16.2327 26.3905 16.282C26.4542 16.3314 26.5325 16.3581 26.613 16.3581H28.086V17.8847H26.6116C26.5311 17.8847 26.4529 17.9115 26.3893 17.9608C26.3257 18.0101 26.2802 18.0791 26.2601 18.1571V18.1571Z" fill="black"/>
<path d="M22.2524 19.6978C21.7428 19.6978 21.2446 19.5466 20.8209 19.2635C20.3972 18.9803 20.0669 18.5779 19.8719 18.1071C19.6769 17.6362 19.6259 17.1182 19.7254 16.6183C19.8248 16.1185 20.0703 15.6594 20.4306 15.2991C20.791 14.9388 21.2502 14.6934 21.75 14.594C22.2498 14.4946 22.7679 14.5457 23.2387 14.7408C23.7095 14.9359 24.1119 15.2662 24.395 15.6899C24.6781 16.1137 24.8291 16.6119 24.829 17.1215C24.8282 17.8046 24.5564 18.4594 24.0734 18.9424C23.5903 19.4253 22.9355 19.697 22.2524 19.6978ZM22.2524 15.1912C21.8707 15.1912 21.4976 15.3044 21.1802 15.5165C20.8628 15.7285 20.6155 16.03 20.4694 16.3826C20.3233 16.7353 20.2851 17.1233 20.3596 17.4977C20.434 17.8721 20.6178 18.2159 20.8878 18.4858C21.1577 18.7558 21.5015 18.9396 21.8759 19.014C22.2503 19.0885 22.6383 19.0503 22.991 18.9042C23.3436 18.7581 23.6451 18.5108 23.8571 18.1934C24.0692 17.876 24.1824 17.5029 24.1824 17.1212C24.1818 16.6095 23.9783 16.1189 23.6165 15.7571C23.2547 15.3953 22.7641 15.1918 22.2524 15.1912V15.1912Z" fill="black"/>
<path d="M9.86481 39.7601C9.80916 39.76 9.75413 39.7483 9.70327 39.7257C9.65242 39.7031 9.60685 39.6701 9.56952 39.6289C9.53218 39.5876 9.50389 39.539 9.48647 39.4861C9.46906 39.4332 9.4629 39.3773 9.46839 39.3219C9.48115 39.2216 9.53047 39.1296 9.6069 39.0634C9.68333 38.9972 9.7815 38.9616 9.88259 38.9633H15.7V33.6001H1.51841C1.35053 33.6001 1.1843 33.567 1.0292 33.5028C0.874102 33.4385 0.733176 33.3444 0.614469 33.2257C0.495762 33.107 0.401599 32.966 0.337356 32.8109C0.273113 32.6558 0.240049 32.4896 0.240051 32.3217V4.30407C0.240051 3.96501 0.374739 3.63985 0.614486 3.4001C0.854232 3.16036 1.1794 3.02567 1.51845 3.02567H7.68536V1.13503C7.68536 0.956027 7.75647 0.78435 7.88305 0.657772C8.00963 0.531194 8.18131 0.460083 8.36031 0.460083H31.7135C31.8925 0.460085 32.0641 0.531197 32.1907 0.657774C32.3173 0.784352 32.3884 0.956027 32.3884 1.13503V3.02571H38.4816C38.6495 3.0257 38.8157 3.05877 38.9709 3.12301C39.126 3.18726 39.2669 3.28143 39.3856 3.40014C39.5043 3.51886 39.5985 3.65979 39.6627 3.8149C39.727 3.97001 39.7601 4.13626 39.76 4.30415V32.3217C39.76 32.6608 39.6253 32.9859 39.3856 33.2257C39.1459 33.4654 38.8207 33.6001 38.4817 33.6001H24.3008V38.9633H30.1175C30.2186 38.9616 30.3168 38.9972 30.3932 39.0634C30.4696 39.1296 30.5189 39.2217 30.5317 39.322C30.5372 39.3773 30.531 39.4333 30.5136 39.4861C30.4962 39.539 30.4679 39.5876 30.4306 39.6289C30.3932 39.6701 30.3477 39.7031 30.2968 39.7257C30.246 39.7483 30.1909 39.76 30.1353 39.7601L9.86481 39.7601ZM16.4961 38.9633H23.5041V33.6001H16.4961V38.9633ZM1.51841 3.82251C1.39068 3.82251 1.26819 3.87325 1.17787 3.96356C1.08755 4.05388 1.03681 4.17638 1.03681 4.30411V32.3217C1.03681 32.4495 1.08755 32.5719 1.17787 32.6623C1.26819 32.7526 1.39068 32.8033 1.51841 32.8033H38.4817C38.6094 32.8033 38.7319 32.7526 38.8222 32.6623C38.9125 32.5719 38.9632 32.4494 38.9632 32.3217V4.30407C38.9632 4.17635 38.9125 4.05385 38.8222 3.96354C38.7319 3.87322 38.6094 3.82248 38.4817 3.82247H32.3884V27.7486H35.7334C35.8349 27.7469 35.9334 27.7826 36.0102 27.8491C36.0869 27.9155 36.1364 28.0079 36.1493 28.1086C36.1548 28.1642 36.1486 28.2204 36.1311 28.2734C36.1136 28.3265 36.0852 28.3754 36.0477 28.4168C36.0102 28.4582 35.9645 28.4914 35.9134 28.5141C35.8624 28.5368 35.8071 28.5485 35.7512 28.5486H4.26703C4.16554 28.5503 4.06699 28.5146 3.99025 28.4481C3.91351 28.3817 3.86398 28.2893 3.85115 28.1886C3.84563 28.133 3.85181 28.0768 3.8693 28.0238C3.88678 27.9707 3.91518 27.9219 3.95267 27.8804C3.99017 27.839 4.03592 27.8058 4.08698 27.7831C4.13805 27.7604 4.1933 27.7487 4.24919 27.7486H7.68536V3.82251H1.51841ZM20.2546 25.0809C20.3603 25.0809 20.4616 25.1229 20.5363 25.1976C20.611 25.2723 20.653 25.3737 20.653 25.4793V27.7486H31.5884V5.73446H8.48536V27.7486H10.8448V25.4794C10.8448 25.4271 10.8551 25.3752 10.8751 25.3269C10.8952 25.2786 10.9245 25.2346 10.9615 25.1977C10.9985 25.1607 11.0424 25.1313 11.0908 25.1113C11.1391 25.0913 11.1909 25.081 11.2432 25.081L20.2546 25.0809ZM11.6416 27.7486H19.8562V25.8777H11.6416V27.7486ZM8.48536 5.04118H31.5884V1.26008H8.48536V5.04118Z" fill="black"/>
<path d="M11.2432 13.2395C11.1375 13.2393 11.0363 13.1973 10.9616 13.1226C10.8869 13.0479 10.8448 12.9467 10.8447 12.841V8.34823C10.8448 8.2426 10.8869 8.14132 10.9616 8.06663C11.0363 7.99194 11.1375 7.94993 11.2432 7.94983H28.4112C28.5168 7.94993 28.6181 7.99194 28.6928 8.06663C28.7675 8.14132 28.8095 8.2426 28.8096 8.34823V10.045C28.8096 10.1507 28.7676 10.252 28.6929 10.3267C28.6182 10.4015 28.5169 10.4434 28.4112 10.4434C28.3055 10.4434 28.2042 10.4015 28.1295 10.3267C28.0548 10.252 28.0128 10.1507 28.0128 10.045V8.74587H11.6415V12.4427H14.1464C14.252 12.4427 14.3534 12.4846 14.4281 12.5594C14.5028 12.6341 14.5448 12.7354 14.5448 12.8411C14.5448 12.9467 14.5028 13.0481 14.4281 13.1228C14.3534 13.1975 14.252 13.2395 14.1464 13.2395H11.2432Z" fill="black"/>
<path d="M11.2433 16.8471C11.1376 16.8471 11.0363 16.8051 10.9616 16.7304C10.8869 16.6558 10.845 16.5544 10.845 16.4488C10.845 16.3432 10.8869 16.2419 10.9616 16.1672C11.0363 16.0925 11.1376 16.0505 11.2433 16.0505H14.1286C14.2342 16.0505 14.3355 16.0925 14.4102 16.1672C14.4849 16.2419 14.5268 16.3432 14.5268 16.4488C14.5268 16.5544 14.4849 16.6558 14.4102 16.7304C14.3355 16.8051 14.2342 16.8471 14.1286 16.8471H11.2433Z" fill="black"/>
<path d="M11.2433 22.1097C11.1376 22.1097 11.0363 22.0677 10.9616 21.993C10.8869 21.9183 10.845 21.817 10.845 21.7114C10.845 21.6058 10.8869 21.5045 10.9616 21.4298C11.0363 21.3551 11.1376 21.3131 11.2433 21.3131H14.1286C14.2342 21.3131 14.3355 21.3551 14.4102 21.4298C14.4849 21.5045 14.5268 21.6058 14.5268 21.7114C14.5268 21.817 14.4849 21.9183 14.4102 21.993C14.3355 22.0677 14.2342 22.1097 14.1286 22.1097H11.2433Z" fill="black"/>
<path d="M11.2432 19.4784C11.1376 19.4784 11.0363 19.4364 10.9616 19.3617C10.8869 19.287 10.8449 19.1857 10.8449 19.0801C10.8449 18.9744 10.8869 18.8731 10.9616 18.7984C11.0363 18.7237 11.1376 18.6818 11.2432 18.6818H14.1285C14.2342 18.6818 14.3355 18.7237 14.4102 18.7984C14.4849 18.8731 14.5269 18.9744 14.5269 19.0801C14.5269 19.1857 14.4849 19.287 14.4102 19.3617C14.3355 19.4364 14.2342 19.4784 14.1285 19.4784H11.2432Z" fill="black"/>
<path d="M25.5261 25.8776C25.4204 25.8776 25.3191 25.8356 25.2444 25.7609C25.1697 25.6862 25.1277 25.5849 25.1277 25.4793C25.1277 25.3736 25.1697 25.2723 25.2444 25.1976C25.3191 25.1229 25.4204 25.0809 25.5261 25.0809H28.4114C28.517 25.0809 28.6183 25.1229 28.693 25.1976C28.7677 25.2723 28.8097 25.3736 28.8097 25.4793C28.8097 25.5849 28.7677 25.6862 28.693 25.7609C28.6183 25.8356 28.517 25.8776 28.4114 25.8776H25.5261Z" fill="black"/>
</svg>
