<svg width="40" height="40" viewBox="0 0 40 40" fill="none" xmlns="http://www.w3.org/2000/svg">
<path d="M9.43906 39.9436C9.35465 39.9436 9.27369 39.91 9.21401 39.8504C9.15432 39.7907 9.12078 39.7097 9.12078 39.6253C9.12078 39.5409 9.15432 39.4599 9.21401 39.4002C9.27369 39.3405 9.35465 39.307 9.43906 39.307H15.7794V33.783H1.5184C1.20068 33.7827 0.89608 33.6563 0.671416 33.4316C0.446751 33.207 0.32037 32.9024 0.32 32.5847V4.5673C0.320374 4.24958 0.446757 3.94499 0.671422 3.72034C0.896086 3.49569 1.20069 3.36933 1.5184 3.36898H7.69351V0.901898C7.69362 0.81751 7.72719 0.736608 7.78686 0.676941C7.84654 0.617273 7.92744 0.583711 8.01183 0.583618H31.9882C32.0726 0.583718 32.1535 0.617282 32.2132 0.67695C32.2728 0.736617 32.3064 0.817515 32.3065 0.901898V3.36897H38.4816C38.7994 3.36933 39.1039 3.49569 39.3286 3.72034C39.5533 3.945 39.6796 4.24959 39.68 4.5673V32.5848C39.6796 32.9025 39.5533 33.2071 39.3286 33.4317C39.104 33.6564 38.7994 33.7828 38.4816 33.7831H36.8085C36.7244 33.7827 36.6438 33.749 36.5845 33.6893C36.5251 33.6297 36.4918 33.549 36.4918 33.4648C36.4918 33.3807 36.5251 33.3 36.5845 33.2403C36.6438 33.1807 36.7244 33.147 36.8085 33.1465H38.4817C38.6307 33.1464 38.7735 33.0871 38.8788 32.9818C38.9841 32.8765 39.0433 32.7337 39.0435 32.5848V4.56737C39.0433 4.41842 38.9841 4.27563 38.8788 4.17031C38.7735 4.06499 38.6307 4.00574 38.4817 4.00557H32.3065V7.35631C32.3065 7.44074 32.273 7.5217 32.2133 7.5814C32.1536 7.6411 32.0726 7.67463 31.9882 7.67463C31.9038 7.67463 31.8228 7.6411 31.7631 7.5814C31.7034 7.5217 31.6699 7.44074 31.6699 7.35631V1.22022H8.33012V27.953H11.0978V22.4163C11.0979 22.3319 11.1315 22.251 11.1911 22.1914C11.2508 22.1317 11.3317 22.0981 11.4161 22.098H21.518C21.6023 22.0981 21.6832 22.1317 21.7429 22.1914C21.8026 22.251 21.8361 22.3319 21.8362 22.4163V27.953H27.1677C27.2521 27.953 27.333 27.9865 27.3927 28.0462C27.4524 28.1059 27.486 28.1868 27.486 28.2713C27.486 28.3557 27.4524 28.4367 27.3927 28.4964C27.333 28.5561 27.2521 28.5896 27.1677 28.5896H3.27855C3.19413 28.5896 3.11316 28.5561 3.05347 28.4964C2.99377 28.4367 2.96023 28.3557 2.96023 28.2713C2.96023 28.1868 2.99377 28.1059 3.05347 28.0462C3.11316 27.9865 3.19413 27.953 3.27855 27.953H7.69351V4.00549H1.5184C1.36945 4.00566 1.22665 4.06491 1.12133 4.17023C1.01601 4.27555 0.956769 4.41835 0.9566 4.5673V32.5847C0.95678 32.7336 1.01603 32.8764 1.12135 32.9817C1.22667 33.087 1.36946 33.1462 1.5184 33.1464H27.1676C27.252 33.1464 27.333 33.1799 27.3927 33.2396C27.4524 33.2993 27.4859 33.3803 27.4859 33.4647C27.4859 33.5491 27.4524 33.6301 27.3927 33.6898C27.333 33.7495 27.252 33.783 27.1676 33.783H24.2206V39.307H27.7352C27.8196 39.307 27.9006 39.3406 27.9603 39.4003C28.0199 39.4599 28.0535 39.5409 28.0535 39.6253C28.0535 39.7097 28.0199 39.7907 27.9603 39.8504C27.9006 39.9101 27.8196 39.9436 27.7352 39.9436L9.43906 39.9436ZM16.416 39.307H23.5841V33.783H16.416L16.416 39.307ZM11.7344 27.953H21.1997V22.7347H11.7344V27.953Z" fill="black"/>
<path d="M31.9881 39.9437C31.3026 39.9429 30.6454 39.6703 30.1607 39.1856C29.676 38.7008 29.4033 38.0436 29.4025 37.3581V15.5564C29.4025 15.5459 29.403 15.5354 29.4041 15.525L29.4087 15.4952L29.4168 15.4622C29.4179 15.4586 29.42 15.4535 29.4219 15.4482L29.429 15.4287L31.6926 9.79083C31.7163 9.73187 31.7571 9.68135 31.8097 9.64577C31.8624 9.61019 31.9245 9.59118 31.988 9.59119C32.0515 9.5912 32.1136 9.61022 32.1663 9.64582C32.2189 9.68141 32.2597 9.73194 32.2833 9.79091L34.5479 15.4313L34.5533 15.4467C34.5557 15.4529 34.558 15.4587 34.5598 15.4648L34.5619 15.4738C34.5643 15.4829 34.5659 15.4883 34.5671 15.4939L34.5726 15.5302C34.573 15.5354 34.5736 15.5459 34.5736 15.5564V37.3581C34.5728 38.0436 34.3002 38.7008 33.8155 39.1855C33.3308 39.6702 32.6736 39.9429 31.9881 39.9437ZM30.0389 37.358C30.0389 37.8749 30.2442 38.3707 30.6097 38.7362C30.9752 39.1017 31.471 39.307 31.9879 39.307C32.5048 39.307 33.0005 39.1017 33.366 38.7362C33.7315 38.3707 33.9369 37.8749 33.9369 37.358V35.3797H30.0389V37.358ZM30.039 34.7432H33.9369V15.8746H30.039V34.7432ZM30.1915 15.2381H33.7844L31.988 10.7638L30.1915 15.2381Z" fill="black"/>
<path d="M11.4161 9.11756C11.3317 9.11747 11.2508 9.08391 11.1911 9.02424C11.1315 8.96457 11.0979 8.88367 11.0978 8.79928V4.30607C11.0979 4.22168 11.1315 4.14078 11.1911 4.08111C11.2508 4.02145 11.3317 3.98788 11.4161 3.98779H28.584C28.6684 3.98789 28.7493 4.02146 28.809 4.08113C28.8686 4.14079 28.9022 4.22169 28.9023 4.30607V8.79928C28.9022 8.88366 28.8686 8.96456 28.809 9.02423C28.7493 9.0839 28.6684 9.11746 28.584 9.11756H11.4161ZM11.7344 8.481H28.2657V4.6244H11.7344L11.7344 8.481Z" fill="black"/>
<path d="M11.4159 11.6708C11.374 11.671 11.3324 11.6629 11.2936 11.647C11.2548 11.6311 11.2195 11.6077 11.1898 11.5781C11.1601 11.5485 11.1365 11.5134 11.1204 11.4747C11.1043 11.4359 11.096 11.3944 11.096 11.3525C11.096 11.3105 11.1043 11.269 11.1204 11.2303C11.1365 11.1916 11.1601 11.1564 11.1898 11.1268C11.2195 11.0973 11.2548 11.0739 11.2936 11.058C11.3324 11.0421 11.374 11.034 11.4159 11.0342H28.5837C28.6257 11.034 28.6672 11.042 28.706 11.0579C28.7448 11.0738 28.7801 11.0972 28.8098 11.1268C28.8396 11.1564 28.8632 11.1915 28.8793 11.2303C28.8954 11.269 28.9037 11.3105 28.9037 11.3524C28.9037 11.3944 28.8954 11.4359 28.8793 11.4746C28.8632 11.5133 28.8396 11.5485 28.8099 11.5781C28.7802 11.6077 28.7449 11.6311 28.7061 11.647C28.6673 11.6629 28.6257 11.671 28.5838 11.6708H11.4159Z" fill="black"/>
<path d="M11.4163 15.075C11.3319 15.075 11.2509 15.0414 11.1912 14.9817C11.1315 14.922 11.098 14.8411 11.098 14.7567C11.098 14.6722 11.1315 14.5913 11.1912 14.5316C11.2509 14.4719 11.3319 14.4384 11.4163 14.4384H21.5182C21.6026 14.4384 21.6835 14.4719 21.7432 14.5316C21.8029 14.5913 21.8365 14.6722 21.8365 14.7567C21.8365 14.8411 21.8029 14.922 21.7432 14.9817C21.6835 15.0414 21.6026 15.075 21.5182 15.075H11.4163Z" fill="black"/>
<path d="M24.0713 15.075C23.9868 15.075 23.9059 15.0414 23.8462 14.9817C23.7865 14.922 23.753 14.8411 23.753 14.7567C23.753 14.6722 23.7865 14.5913 23.8462 14.5316C23.9059 14.4719 23.9868 14.4384 24.0713 14.4384H27.2906C27.3751 14.4384 27.456 14.4719 27.5157 14.5316C27.5754 14.5913 27.6089 14.6722 27.6089 14.7567C27.6089 14.8411 27.5754 14.922 27.5157 14.9817C27.456 15.0414 27.3751 15.075 27.2906 15.075H24.0713Z" fill="black"/>
<path d="M11.4159 17.6282C11.374 17.6284 11.3324 17.6203 11.2936 17.6044C11.2548 17.5885 11.2195 17.5651 11.1898 17.5355C11.1601 17.506 11.1365 17.4708 11.1204 17.4321C11.1043 17.3933 11.096 17.3518 11.096 17.3099C11.096 17.268 11.1043 17.2264 11.1204 17.1877C11.1365 17.149 11.1601 17.1138 11.1898 17.0842C11.2195 17.0547 11.2548 17.0313 11.2936 17.0154C11.3324 16.9994 11.374 16.9914 11.4159 16.9916H21.5178C21.6019 16.992 21.6825 17.0257 21.7418 17.0854C21.8012 17.145 21.8345 17.2257 21.8345 17.3099C21.8345 17.394 21.8012 17.4748 21.7418 17.5344C21.6825 17.594 21.6019 17.6278 21.5178 17.6282H11.4159Z" fill="black"/>
<path d="M24.0713 17.6282C24.0294 17.6284 23.9878 17.6203 23.949 17.6044C23.9102 17.5885 23.875 17.5651 23.8452 17.5355C23.8155 17.506 23.7919 17.4708 23.7758 17.4321C23.7597 17.3933 23.7514 17.3518 23.7514 17.3099C23.7514 17.268 23.7597 17.2264 23.7758 17.1877C23.7919 17.149 23.8155 17.1138 23.8452 17.0842C23.875 17.0547 23.9102 17.0313 23.949 17.0154C23.9878 16.9994 24.0294 16.9914 24.0713 16.9916H27.1678C27.252 16.992 27.3325 17.0257 27.3919 17.0854C27.4512 17.145 27.4845 17.2257 27.4845 17.3099C27.4845 17.394 27.4512 17.4748 27.3919 17.5344C27.3325 17.594 27.252 17.6278 27.1678 17.6282H24.0713Z" fill="black"/>
<path d="M11.4161 20.1814C11.3742 20.1816 11.3326 20.1735 11.2938 20.1576C11.255 20.1417 11.2197 20.1183 11.19 20.0887C11.1603 20.0591 11.1367 20.024 11.1206 19.9853C11.1045 19.9465 11.0962 19.905 11.0962 19.8631C11.0962 19.8212 11.1045 19.7796 11.1206 19.7409C11.1367 19.7022 11.1603 19.667 11.19 19.6375C11.2197 19.6079 11.255 19.5845 11.2938 19.5686C11.3326 19.5527 11.3742 19.5446 11.4161 19.5448H21.518C21.6021 19.5452 21.6826 19.5789 21.742 19.6386C21.8013 19.6982 21.8347 19.779 21.8347 19.8631C21.8347 19.9472 21.8013 20.0279 21.742 20.0876C21.6826 20.1472 21.6021 20.181 21.518 20.1814H11.4161Z" fill="black"/>
<path d="M24.0711 20.1814C24.0291 20.1816 23.9876 20.1735 23.9488 20.1576C23.91 20.1417 23.8747 20.1183 23.845 20.0887C23.8152 20.0591 23.7917 20.024 23.7756 19.9853C23.7595 19.9465 23.7512 19.905 23.7512 19.8631C23.7512 19.8212 23.7595 19.7796 23.7756 19.7409C23.7917 19.7022 23.8152 19.667 23.845 19.6375C23.8747 19.6079 23.91 19.5845 23.9488 19.5686C23.9876 19.5527 24.0291 19.5446 24.0711 19.5448H27.1675C27.2517 19.5452 27.3322 19.5789 27.3916 19.6386C27.4509 19.6982 27.4842 19.779 27.4842 19.8631C27.4842 19.9472 27.4509 20.0279 27.3916 20.0876C27.3322 20.1472 27.2517 20.181 27.1675 20.1814H24.0711Z" fill="black"/>
</svg>
