<svg width="40" height="40" viewBox="0 0 40 40" fill="none" xmlns="http://www.w3.org/2000/svg">
<path d="M9.86481 39.5249C9.78036 39.5249 9.69938 39.4913 9.63966 39.4316C9.57995 39.3719 9.54641 39.2909 9.54641 39.2065C9.54641 39.122 9.57995 39.0411 9.63966 38.9813C9.69938 38.9216 9.78036 38.8881 9.86481 38.8881H15.78V33.3649H1.51841C1.20067 33.3645 0.896057 33.2382 0.671389 33.0135C0.446722 32.7888 0.320352 32.4842 0.320007 32.1664V4.14887C0.320367 3.83115 0.446743 3.52654 0.671408 3.30187C0.896074 3.07721 1.20068 2.95083 1.51841 2.95047H7.72849V1.07012C7.72866 0.912105 7.79151 0.760609 7.90324 0.648875C8.01498 0.53714 8.16647 0.474293 8.32449 0.474121H31.6755C31.8335 0.474293 31.985 0.53714 32.0968 0.648875C32.2085 0.760609 32.2713 0.912105 32.2715 1.07012V2.95047H38.4816C38.7993 2.95083 39.1039 3.0772 39.3286 3.30187C39.5533 3.52654 39.6796 3.83115 39.68 4.14887V32.1665C39.6797 32.4842 39.5533 32.7888 39.3286 33.0135C39.104 33.2382 38.7993 33.3645 38.4816 33.3649H24.2208V38.8881H30.1352C30.2197 38.8881 30.3006 38.9216 30.3603 38.9813C30.4201 39.0411 30.4536 39.122 30.4536 39.2065C30.4536 39.2909 30.4201 39.3719 30.3603 39.4316C30.3006 39.4913 30.2197 39.5249 30.1352 39.5249H9.86481ZM16.416 38.8881H23.584V33.3649H16.416V38.8881ZM1.51841 3.58727C1.36951 3.58744 1.22677 3.64666 1.12148 3.75195C1.0162 3.85723 0.956975 3.99998 0.956807 4.14887V32.1665C0.956983 32.3154 1.01621 32.4581 1.12149 32.5634C1.22677 32.6687 1.36952 32.7279 1.51841 32.7281H38.4816C38.6305 32.7279 38.7732 32.6687 38.8785 32.5634C38.9838 32.4581 39.043 32.3154 39.0432 32.1665V4.14887C39.043 3.99998 38.9838 3.85723 38.8785 3.75195C38.7732 3.64667 38.6305 3.58744 38.4816 3.58727H32.2715V18.5367C32.2714 18.6947 32.2085 18.8462 32.0968 18.958C31.985 19.0697 31.8335 19.1325 31.6755 19.1327H30.3949C30.31 19.1327 30.2286 19.099 30.1686 19.039C30.1086 18.979 30.0749 18.8976 30.0749 18.8127C30.0749 18.7279 30.1086 18.6465 30.1686 18.5864C30.2286 18.5264 30.31 18.4927 30.3949 18.4927H31.6315V1.11415H8.36849V18.4927H9.46721C9.55208 18.4927 9.63347 18.5264 9.69348 18.5864C9.75349 18.6464 9.78721 18.7278 9.78721 18.8127C9.78721 18.8976 9.75349 18.979 9.69348 19.039C9.63347 19.099 9.55208 19.1327 9.46721 19.1327H8.3245C8.16649 19.1325 8.01499 19.0697 7.90326 18.958C7.79152 18.8462 7.72867 18.6947 7.7285 18.5367V3.58727H1.51841Z" fill="black"/>
<path d="M3.7431 27.5055C3.65823 27.5055 3.57683 27.4718 3.51682 27.4118C3.45681 27.3517 3.4231 27.2703 3.4231 27.1855C3.4231 27.1006 3.45681 27.0192 3.51682 26.9592C3.57683 26.8992 3.65823 26.8655 3.7431 26.8655H36.2571C36.3419 26.8655 36.4233 26.8992 36.4834 26.9592C36.5434 27.0192 36.5771 27.1006 36.5771 27.1855C36.5771 27.2703 36.5434 27.3517 36.4834 27.4118C36.4233 27.4718 36.3419 27.5055 36.2571 27.5055H3.7431Z" fill="black"/>
<path d="M18.7785 24.2311C18.6937 24.231 18.6123 24.1973 18.5523 24.1373C18.4923 24.0773 18.4586 23.996 18.4585 23.9111V21.1363H17.8311C17.7463 21.1362 17.6649 21.1025 17.6049 21.0425C17.5449 20.9825 17.5112 20.9011 17.5111 20.8163V19.6353C17.5112 19.5505 17.5449 19.4692 17.6049 19.4092C17.6649 19.3492 17.7463 19.3154 17.8311 19.3153H17.9534L17.2842 17.3076C17.2694 17.2621 17.2653 17.2138 17.2721 17.1664C17.279 17.119 17.2966 17.0738 17.3237 17.0343L19.7461 13.5356C19.7673 13.5049 19.7939 13.4783 19.8246 13.4571C19.8758 13.4213 19.9367 13.402 19.9992 13.402C20.0179 13.402 20.0365 13.4037 20.0549 13.407C20.095 13.4141 20.1334 13.4292 20.1677 13.4512C20.2019 13.4733 20.2315 13.502 20.2546 13.5356L22.6775 17.035C22.7045 17.0745 22.7219 17.1197 22.7285 17.1671C22.735 17.2145 22.7304 17.2627 22.7151 17.308L22.047 19.3153H22.1693C22.2541 19.3154 22.3354 19.3492 22.3954 19.4092C22.4554 19.4692 22.4892 19.5505 22.4893 19.6353V20.8163C22.4892 20.9011 22.4554 20.9825 22.3954 21.0425C22.3354 21.1025 22.2541 21.1362 22.1693 21.1363H21.5418V23.9111C21.5418 23.996 21.508 24.0773 21.448 24.1373C21.388 24.1973 21.3067 24.231 21.2218 24.2311H18.7785ZM19.0985 23.5911H20.9019V21.1363H19.0985V23.5911ZM18.1511 20.4963H21.8493V19.9553H18.1511V20.4963ZM17.9202 17.2598L18.6048 19.3153H21.3955L22.0806 17.2598L20.3097 14.7009V16.1508L20.3561 16.1723C20.5314 16.2534 20.6737 16.392 20.7594 16.565C20.8452 16.7381 20.8693 16.9353 20.8277 17.1239C20.7861 17.3125 20.6813 17.4812 20.5307 17.6022C20.3801 17.7231 20.1928 17.789 19.9996 17.7889C19.8065 17.7888 19.6192 17.7227 19.4687 17.6016C19.3182 17.4806 19.2136 17.3117 19.1722 17.123C19.1308 16.9344 19.1551 16.7373 19.241 16.5643C19.327 16.3913 19.4694 16.2529 19.6448 16.1719L19.6912 16.1504V14.7009L17.9202 17.2598ZM20.0002 16.7117C19.9394 16.7117 19.8811 16.7359 19.8381 16.7789C19.7951 16.822 19.7709 16.8803 19.771 16.9411C19.771 17.0019 19.7952 17.0603 19.8382 17.1033C19.8812 17.1463 19.9395 17.1704 20.0003 17.1704C20.0612 17.1704 20.1195 17.1463 20.1625 17.1033C20.2055 17.0603 20.2297 17.0019 20.2297 16.9411C20.2297 16.8803 20.2056 16.822 20.1626 16.7789C20.1196 16.7359 20.0613 16.7117 20.0005 16.7117H20.0002Z" fill="black"/>
<path d="M24.5218 16.4822C24.4249 16.4821 24.332 16.4436 24.2635 16.3751C24.195 16.3066 24.1565 16.2137 24.1564 16.1168V14.5904C24.1565 14.4935 24.195 14.4006 24.2635 14.3321C24.332 14.2636 24.4249 14.2251 24.5218 14.225H24.9933L24.9849 14.1374C24.8647 12.9811 24.4277 11.8804 23.722 10.9567C23.0055 10.0324 22.1332 9.46065 21.1997 9.30325L21.1064 9.28755V9.74763C21.1063 9.84451 21.0677 9.93739 20.9992 10.0059C20.9307 10.0744 20.8379 10.1129 20.741 10.1131H19.2146C19.1177 10.1129 19.0248 10.0744 18.9563 10.0059C18.8878 9.9374 18.8492 9.84451 18.8491 9.74763V9.28939L18.7552 9.30599C16.9825 9.61942 15.0229 11.5577 14.9482 14.1427L14.9458 14.225H15.4341C15.531 14.2251 15.6239 14.2636 15.6924 14.3321C15.7609 14.4006 15.7994 14.4935 15.7995 14.5904V16.1168C15.7994 16.2137 15.7609 16.3066 15.6924 16.3751C15.6239 16.4436 15.531 16.4821 15.4341 16.4822H13.9077C13.8108 16.4821 13.7179 16.4436 13.6494 16.3751C13.5809 16.3066 13.5424 16.2137 13.5422 16.1168V14.5904C13.5424 14.4935 13.5809 14.4006 13.6494 14.3321C13.7179 14.2636 13.8108 14.2251 13.9077 14.225H14.3983L14.4006 14.1473C14.4366 12.8757 14.9486 11.5503 15.8054 10.5109C16.154 10.0826 16.5656 9.70968 17.0262 9.40497L17.2478 9.25825H13.4021V9.74763C13.402 9.84451 13.3635 9.93739 13.295 10.0059C13.2265 10.0744 13.1336 10.1129 13.0367 10.1131H11.5103C11.4134 10.1129 11.3205 10.0744 11.252 10.0059C11.1835 9.9374 11.145 9.84451 11.1448 9.74763V8.22123C11.145 8.12434 11.1835 8.03147 11.252 7.96297C11.3205 7.89447 11.4134 7.85594 11.5103 7.85583H13.0367C13.1336 7.85594 13.2265 7.89447 13.295 7.96297C13.3635 8.03147 13.402 8.12435 13.4021 8.22123V8.71064H18.8491V8.22123C18.8492 8.12434 18.8878 8.03147 18.9563 7.96297C19.0248 7.89447 19.1177 7.85594 19.2146 7.85583H20.741C20.8379 7.85594 20.9307 7.89447 20.9992 7.96297C21.0677 8.03147 21.1063 8.12435 21.1064 8.22123V8.71064H26.1982V8.22123C26.1983 8.12434 26.2368 8.03147 26.3053 7.96297C26.3739 7.89447 26.4667 7.85594 26.5636 7.85583H28.09C28.1869 7.85594 28.2798 7.89447 28.3483 7.96297C28.4168 8.03147 28.4553 8.12435 28.4554 8.22123V9.74763C28.4553 9.84451 28.4168 9.93739 28.3483 10.0059C28.2798 10.0744 28.1869 10.1129 28.09 10.1131H26.5636C26.4667 10.1129 26.3739 10.0744 26.3053 10.0059C26.2368 9.9374 26.1983 9.84451 26.1982 9.74763V9.25825H22.6583L22.8727 9.40435C23.3627 9.7378 23.7955 10.1483 24.1543 10.62C24.9434 11.6407 25.423 12.8664 25.5361 14.1516L25.5422 14.225H26.0482C26.145 14.2251 26.2379 14.2636 26.3064 14.3321C26.375 14.4006 26.4135 14.4935 26.4136 14.5904V16.1168C26.4135 16.2137 26.375 16.3066 26.3064 16.3751C26.2379 16.4436 26.145 16.4821 26.0482 16.4822L24.5218 16.4822ZM24.8512 15.7874H25.7188V14.9198H24.8512L24.8512 15.7874ZM14.2371 15.7874H15.1047V14.9198H14.2371L14.2371 15.7874ZM26.893 9.41824H27.7606V8.55063H26.893L26.893 9.41824ZM19.5441 9.41824H20.4117V8.55063H19.5441L19.5441 9.41824ZM11.8393 9.41824H12.7069V8.55063H11.8394L11.8393 9.41824Z" fill="black"/>
</svg>
