<svg width="40" height="40" viewBox="0 0 40 40" fill="none" xmlns="http://www.w3.org/2000/svg">
<path d="M20.0001 24.6745C19.9046 24.6744 19.8131 24.6365 19.7456 24.569C19.6781 24.5015 19.6402 24.41 19.6401 24.3145V15.7951C19.6401 15.6996 19.678 15.608 19.7455 15.5405C19.813 15.473 19.9046 15.4351 20.0001 15.4351C20.0956 15.4351 20.1871 15.473 20.2546 15.5405C20.3221 15.608 20.3601 15.6996 20.3601 15.7951V24.3145C20.36 24.41 20.322 24.5015 20.2545 24.569C20.187 24.6365 20.0955 24.6744 20.0001 24.6745Z" fill="black"/>
<path d="M3.26284 23.8973C3.178 23.8972 3.09665 23.8635 3.03666 23.8035C2.97667 23.7435 2.94293 23.6622 2.94284 23.5773V20.5602C2.94293 20.4754 2.97667 20.394 3.03666 20.3341C3.09665 20.2741 3.178 20.2403 3.26284 20.2402H17.4284C17.5133 20.2403 17.5946 20.2741 17.6546 20.3341C17.7146 20.394 17.7484 20.4754 17.7484 20.5602V23.5773C17.7484 23.6622 17.7146 23.7435 17.6546 23.8035C17.5946 23.8635 17.5133 23.8972 17.4284 23.8973H3.26284ZM3.58284 23.2573H17.1084V20.8802H3.58284V23.2573Z" fill="black"/>
<path d="M3.27456 18.1776C3.18972 18.1775 3.10838 18.1438 3.04839 18.0838C2.98839 18.0238 2.95465 17.9425 2.95456 17.8576V7.55962C2.95465 7.47478 2.98839 7.39344 3.04839 7.33345C3.10838 7.27346 3.18972 7.23972 3.27456 7.23962H17.4402C17.5251 7.23971 17.6064 7.27346 17.6664 7.33345C17.7264 7.39344 17.7601 7.47478 17.7602 7.55962V12.4242H22.1457V8.83778C22.1458 8.74234 22.1838 8.65083 22.2513 8.58334C22.3188 8.51585 22.4103 8.47789 22.5057 8.47778H25.5007V4.17372C25.5008 4.07827 25.5388 3.98677 25.6063 3.91928C25.6738 3.85179 25.7653 3.81382 25.8607 3.81372H39.3597C39.4552 3.81383 39.5467 3.85179 39.6142 3.91928C39.6817 3.98677 39.7196 4.07828 39.7197 4.17372V13.5019C39.7196 13.5973 39.6817 13.6888 39.6142 13.7563C39.5467 13.8238 39.4552 13.8618 39.3597 13.8619H25.8607C25.7653 13.8618 25.6738 13.8238 25.6063 13.7563C25.5388 13.6888 25.5008 13.5973 25.5007 13.5019V9.19778H22.8657V12.7842C22.8656 12.8797 22.8277 12.9712 22.7602 13.0387C22.6927 13.1062 22.6012 13.1441 22.5057 13.1442H17.7602V17.8576C17.7601 17.9425 17.7264 18.0238 17.6664 18.0838C17.6064 18.1438 17.5251 18.1775 17.4402 18.1776H3.27456ZM4.30784 17.5376H16.6628L10.4942 13.1232L4.30784 17.5376ZM3.59456 17.4569L10.0816 12.8279L3.59456 8.1856V17.4569ZM10.9072 12.8285L17.1202 17.2746V8.39513L10.9072 12.8285ZM26.2207 13.1419H38.9997V4.53372H26.2207V13.1419ZM10.4946 12.5332L17.0161 7.87962H3.9919L10.4946 12.5332Z" fill="black"/>
<path d="M25.8606 35.7491C25.7652 35.749 25.6737 35.7111 25.6062 35.6436C25.5387 35.5761 25.5007 35.4846 25.5006 35.3891V31.2831H22.5056C22.4102 31.283 22.3187 31.245 22.2512 31.1776C22.1837 31.1101 22.1457 31.0186 22.1456 30.9231V27.3367H17.6852C17.5897 27.3367 17.4982 27.2988 17.4307 27.2313C17.3632 27.1638 17.3252 27.0722 17.3252 26.9767C17.3252 26.8812 17.3632 26.7897 17.4307 26.7222C17.4982 26.6546 17.5897 26.6167 17.6852 26.6167H22.5056C22.6011 26.6168 22.6926 26.6548 22.7601 26.7223C22.8276 26.7898 22.8655 26.8813 22.8656 26.9767V30.5631H25.5006V26.0609C25.5007 25.9655 25.5387 25.874 25.6062 25.8065C25.6737 25.739 25.7652 25.701 25.8606 25.7009H39.3596C39.455 25.701 39.5466 25.739 39.614 25.8065C39.6815 25.874 39.7195 25.9655 39.7196 26.0609V35.3891C39.7195 35.4846 39.6815 35.5761 39.614 35.6436C39.5466 35.7111 39.455 35.749 39.3596 35.7491H25.8606ZM26.2206 35.0291H38.9996V26.4209H26.2206V35.0291Z" fill="black"/>
<path d="M3.26284 27.4095C3.17797 27.4095 3.09658 27.3758 3.03657 27.3158C2.97655 27.2558 2.94284 27.1744 2.94284 27.0895C2.94284 27.0047 2.97655 26.9233 3.03657 26.8633C3.09658 26.8032 3.17797 26.7695 3.26284 26.7695H11.1082C11.1931 26.7695 11.2745 26.8032 11.3345 26.8633C11.3945 26.9233 11.4282 27.0047 11.4282 27.0895C11.4282 27.1744 11.3945 27.2558 11.3345 27.3158C11.2745 27.3758 11.1931 27.4095 11.1082 27.4095H3.26284Z" fill="black"/>
<path d="M6.02408 3.31879C5.94982 3.31879 5.8786 3.28929 5.82609 3.23678C5.77358 3.18427 5.74408 3.11305 5.74408 3.03879C5.74408 2.96453 5.77358 2.89331 5.82609 2.8408C5.8786 2.78829 5.94982 2.75879 6.02408 2.75879H10.2505C10.3247 2.75879 10.396 2.78829 10.4485 2.8408C10.501 2.89331 10.5305 2.96453 10.5305 3.03879C10.5305 3.11305 10.501 3.18427 10.4485 3.23678C10.396 3.28929 10.3247 3.31879 10.2505 3.31879H6.02408Z" fill="black"/>
<path d="M10.3457 37.2603C9.93831 37.2602 9.54012 37.1394 9.20143 36.9131C8.86274 36.6868 8.59877 36.3651 8.44289 35.9888C8.28702 35.6125 8.24624 35.1984 8.32572 34.7988C8.40519 34.3993 8.60135 34.0324 8.88939 33.7443C9.17743 33.4563 9.54442 33.2601 9.94394 33.1807C10.3435 33.1012 10.7576 33.142 11.1339 33.2979C11.5102 33.4538 11.8319 33.7178 12.0582 34.0565C12.2845 34.3952 12.4053 34.7934 12.4053 35.2007C12.4046 35.7468 12.1874 36.2703 11.8013 36.6564C11.4152 37.0425 10.8917 37.2597 10.3457 37.2603ZM10.3457 33.8611C10.0807 33.8611 9.82173 33.9397 9.60145 34.0869C9.38117 34.2341 9.20948 34.4433 9.10809 34.6881C9.00671 34.9328 8.98018 35.2022 9.03187 35.462C9.08356 35.7219 9.21114 35.9606 9.39848 36.1479C9.58582 36.3352 9.8245 36.4628 10.0844 36.5145C10.3442 36.5662 10.6135 36.5397 10.8583 36.4383C11.1031 36.3369 11.3123 36.1652 11.4595 35.9449C11.6067 35.7246 11.6853 35.4657 11.6853 35.2007C11.6849 34.8456 11.5436 34.5051 11.2925 34.2539C11.0413 34.0028 10.7008 33.8615 10.3457 33.8611Z" fill="black"/>
<path d="M11.9363 3.31879C11.862 3.31879 11.7908 3.28929 11.7383 3.23678C11.6858 3.18427 11.6562 3.11305 11.6562 3.03879C11.6562 2.96453 11.6858 2.89331 11.7383 2.8408C11.7908 2.78829 11.862 2.75879 11.9363 2.75879H12.0554C12.1296 2.75879 12.2009 2.78829 12.2534 2.8408C12.3059 2.89331 12.3354 2.96453 12.3354 3.03879C12.3354 3.11305 12.3059 3.18427 12.2534 3.23678C12.2009 3.28929 12.1296 3.31879 12.0554 3.31879H11.9363Z" fill="black"/>
<path d="M14.3362 3.31879C14.2619 3.31879 14.1907 3.28929 14.1382 3.23678C14.0857 3.18427 14.0562 3.11305 14.0562 3.03879C14.0562 2.96453 14.0857 2.89331 14.1382 2.8408C14.1907 2.78829 14.2619 2.75879 14.3362 2.75879H14.4553C14.5296 2.75879 14.6008 2.78829 14.6533 2.8408C14.7058 2.89331 14.7353 2.96453 14.7353 3.03879C14.7353 3.11305 14.7058 3.18427 14.6533 3.23678C14.6008 3.28929 14.5296 3.31879 14.4553 3.31879H14.3362Z" fill="black"/>
<path d="M0.691085 39.6672C0.59564 39.6671 0.504134 39.6291 0.436644 39.5616C0.369154 39.4941 0.331191 39.4026 0.331085 39.3072V0.853652C0.331189 0.758206 0.369151 0.666699 0.436641 0.599208C0.504132 0.531718 0.595639 0.493756 0.691085 0.493652H19.9999C20.0953 0.493756 20.1868 0.531718 20.2543 0.599208C20.3218 0.666699 20.3598 0.758206 20.3599 0.853652V9.84885C20.3599 9.94433 20.322 10.0359 20.2544 10.1034C20.1869 10.1709 20.0954 10.2089 19.9999 10.2089C19.9044 10.2089 19.8128 10.1709 19.7453 10.1034C19.6778 10.0359 19.6399 9.94433 19.6399 9.84885V5.79544H1.05109V31.1588H19.6399V29.9449C19.6399 29.8494 19.6778 29.7578 19.7453 29.6903C19.8128 29.6228 19.9044 29.5849 19.9999 29.5849C20.0954 29.5849 20.1869 29.6228 20.2544 29.6903C20.322 29.7578 20.3599 29.8494 20.3599 29.9449V39.3072C20.3598 39.4026 20.3218 39.4941 20.2543 39.5616C20.1868 39.6291 20.0953 39.6671 19.9999 39.6672H0.691085ZM1.05109 38.9472H19.6399V31.8788H1.05109V38.9472ZM1.05109 5.07541H19.6399V1.21365H1.05109V5.07541Z" fill="black"/>
<path d="M32.4739 10.7877C32.433 10.7877 32.3926 10.7788 32.3555 10.7615C32.3184 10.7442 32.2855 10.719 32.2591 10.6877C32.2328 10.6564 32.2136 10.6197 32.203 10.5802C32.1923 10.5407 32.1905 10.4993 32.1975 10.459L32.7863 7.11984C32.7976 7.05499 32.8314 6.99623 32.8818 6.95389C32.9322 6.91156 32.996 6.88838 33.0618 6.88843C33.0783 6.88844 33.0947 6.88988 33.1109 6.89272C33.1839 6.90575 33.2488 6.94721 33.2914 7.00801C33.3339 7.06882 33.3506 7.144 33.3378 7.2171L32.7491 10.5562C32.7378 10.621 32.704 10.6798 32.6537 10.7221C32.6034 10.7645 32.5397 10.7877 32.4739 10.7877Z" fill="black"/>
<path d="M29.657 10.454C29.6202 10.4541 29.5838 10.4469 29.5498 10.4328C29.5159 10.4188 29.485 10.3981 29.4591 10.372L28.0062 8.91921C27.9537 8.8667 27.9243 8.7955 27.9243 8.72126C27.9243 8.64702 27.9537 8.57582 28.0062 8.52331L29.459 7.07057C29.4849 7.04394 29.5158 7.02271 29.5499 7.00812C29.584 6.99353 29.6207 6.98588 29.6579 6.9856C29.695 6.98533 29.7318 6.99243 29.7661 7.00651C29.8005 7.02059 29.8317 7.04136 29.8579 7.06761C29.8842 7.09385 29.9049 7.12506 29.919 7.15941C29.9331 7.19375 29.9402 7.23056 29.9399 7.26768C29.9397 7.3048 29.932 7.34149 29.9174 7.37563C29.9028 7.40976 29.8816 7.44065 29.855 7.46651L28.6003 8.72124L29.855 9.97601C29.8941 10.0152 29.9208 10.0651 29.9316 10.1194C29.9424 10.1737 29.9369 10.23 29.9157 10.2812C29.8945 10.3323 29.8586 10.3761 29.8126 10.4068C29.7665 10.4376 29.7124 10.454 29.657 10.454V10.454Z" fill="black"/>
<path d="M35.5633 10.4539C35.5079 10.4539 35.4537 10.4375 35.4077 10.4068C35.3616 10.376 35.3257 10.3323 35.3045 10.2811C35.2833 10.2299 35.2778 10.1736 35.2886 10.1193C35.2994 10.065 35.3261 10.0151 35.3652 9.97591L36.6201 8.72119L35.3653 7.4665C35.3142 7.41372 35.2859 7.34296 35.2864 7.26949C35.287 7.19601 35.3165 7.12571 35.3684 7.07375C35.4204 7.02178 35.4907 6.99232 35.5641 6.99171C35.6376 6.9911 35.7084 7.0194 35.7612 7.0705L37.214 8.52323C37.24 8.54923 37.2606 8.58009 37.2747 8.61406C37.2887 8.64803 37.296 8.68443 37.296 8.7212C37.296 8.75797 37.2887 8.79438 37.2747 8.82835C37.2606 8.86232 37.24 8.89318 37.214 8.91917L35.7613 10.372C35.7353 10.398 35.7045 10.4187 35.6705 10.4328C35.6365 10.4468 35.6001 10.454 35.5633 10.4539Z" fill="black"/>
<path d="M32.4736 32.6747C32.4571 32.6746 32.4407 32.6732 32.4244 32.6704C32.3882 32.664 32.3536 32.6505 32.3226 32.6308C32.2915 32.611 32.2647 32.5853 32.2436 32.5552C32.2225 32.5251 32.2076 32.4911 32.1996 32.4552C32.1916 32.4193 32.1908 32.3821 32.1972 32.3459L32.786 29.0068C32.7924 28.9705 32.8058 28.9359 32.8256 28.9049C32.8454 28.8739 32.871 28.8471 32.9012 28.826C32.9313 28.8049 32.9653 28.79 33.0012 28.782C33.0371 28.7741 33.0742 28.7733 33.1104 28.7797C33.1466 28.786 33.1812 28.7995 33.2123 28.8193C33.2433 28.839 33.2701 28.8647 33.2912 28.8948C33.3123 28.925 33.3272 28.959 33.3352 28.9949C33.3431 29.0308 33.3439 29.0679 33.3375 29.1041L32.7488 32.4433C32.7375 32.5081 32.7037 32.5668 32.6534 32.6091C32.6031 32.6514 32.5394 32.6747 32.4736 32.6747Z" fill="black"/>
<path d="M29.6569 32.3412C29.6202 32.3413 29.5837 32.3341 29.5498 32.32C29.5158 32.306 29.4849 32.2853 29.459 32.2592L28.0062 30.8064C27.9538 30.7539 27.9243 30.6827 27.9243 30.6085C27.9243 30.5343 27.9538 30.4631 28.0062 30.4105L29.459 28.9577C29.5115 28.9052 29.5827 28.8757 29.657 28.8757C29.7313 28.8757 29.8025 28.9053 29.855 28.9578C29.9075 29.0103 29.937 29.0815 29.937 29.1558C29.937 29.2301 29.9074 29.3013 29.8549 29.3538L28.6002 30.6085L29.8549 31.8631C29.8941 31.9023 29.9208 31.9522 29.9316 32.0065C29.9424 32.0608 29.9369 32.1171 29.9157 32.1683C29.8945 32.2195 29.8586 32.2632 29.8125 32.294C29.7665 32.3248 29.7123 32.3412 29.6569 32.3412Z" fill="black"/>
<path d="M35.5632 32.3412C35.5079 32.3412 35.4537 32.3248 35.4076 32.294C35.3616 32.2632 35.3257 32.2195 35.3045 32.1683C35.2833 32.1172 35.2778 32.0608 35.2886 32.0065C35.2994 31.9522 35.3261 31.9023 35.3653 31.8632L36.62 30.6085L35.3652 29.3538C35.3131 29.3012 35.284 29.2301 35.2842 29.156C35.2844 29.082 35.3139 29.011 35.3663 28.9587C35.4186 28.9064 35.4896 28.8769 35.5636 28.8767C35.6377 28.8765 35.7088 28.9057 35.7614 28.9578L37.2139 30.4105C37.2399 30.4365 37.2606 30.4673 37.2747 30.5013C37.2887 30.5352 37.296 30.5716 37.296 30.6084C37.296 30.6452 37.2887 30.6816 37.2747 30.7155C37.2606 30.7495 37.2399 30.7804 37.2139 30.8063L35.7613 32.2593C35.7353 32.2853 35.7045 32.306 35.6705 32.32C35.6365 32.3341 35.6 32.3413 35.5632 32.3412Z" fill="black"/>
</svg>
